<?xml version="1.0" standalone="no"?>
<!DOCTYPE svg PUBLIC "-//W3C//DTD SVG 20010904//EN"
 "http://www.w3.org/TR/2001/REC-SVG-20010904/DTD/svg10.dtd">
<svg version="1.0" xmlns="http://www.w3.org/2000/svg"
 width="1052.000000pt" height="1052.000000pt" viewBox="0 0 1052.000000 1052.000000"
 preserveAspectRatio="xMidYMid meet">
<metadata>
Created by potrace 1.11, written by Peter Selinger 2001-2013
</metadata>
<g transform="translate(0.000000,1052.000000) scale(0.100000,-0.100000)"
fill="#000000" stroke="none">
<path d="M7460 9264 c-19 -16 -41 -33 -47 -39 -54 -43 -173 -217 -202 -295 -7
-19 -17 -44 -21 -55 -18 -44 -31 -81 -35 -100 -3 -11 -10 -42 -16 -70 -6 -27
-17 -53 -23 -57 -7 -5 -8 -8 0 -8 7 0 6 -21 -3 -67 -14 -69 -20 -119 -22 -186
-1 -25 -5 -36 -12 -31 -8 4 -8 1 -2 -12 19 -38 2 -75 -67 -148 -109 -113 -228
-244 -290 -316 -12 -14 -38 -43 -58 -65 -20 -22 -62 -69 -92 -105 -30 -36 -57
-67 -60 -70 -3 -3 -30 -34 -60 -70 -87 -102 -104 -122 -125 -144 -11 -12 -40
-46 -65 -76 -25 -30 -47 -57 -51 -60 -7 -7 -234 -283 -283 -345 -22 -27 -47
-58 -55 -67 -24 -26 -31 -35 -151 -189 -61 -79 -116 -151 -123 -159 -111 -137
-427 -559 -427 -569 0 -5 4 -11 10 -13 5 -1 -8 -25 -29 -53 -21 -27 -107 -144
-191 -260 -207 -284 -423 -578 -433 -590 -4 -5 -29 -39 -55 -75 -25 -36 -49
-67 -52 -70 -3 -3 -22 -27 -42 -55 -57 -79 -109 -204 -160 -378 -6 -23 -12
-44 -13 -47 -1 -3 -5 -27 -10 -55 -10 -57 -12 -64 -14 -67 -3 -4 -13 -104 -14
-136 -1 -29 -30 -21 -70 19 -16 16 -33 29 -38 29 -6 0 -8 4 -5 9 3 5 -4 11
-15 14 -13 4 -18 10 -13 18 4 7 3 10 -3 6 -12 -8 -54 38 -45 49 4 4 2 4 -4 1
-6 -4 -22 2 -34 13 -20 17 -21 22 -9 37 13 16 12 17 -3 4 -15 -11 -22 -10 -47
12 -20 16 -26 28 -19 35 6 6 6 12 -3 17 -8 5 -10 4 -5 -3 4 -7 3 -12 -3 -12
-6 0 -99 87 -207 194 l-198 195 -30 -22 c-45 -31 -428 -309 -446 -323 -227
-183 -239 -194 -371 -324 -166 -165 -262 -288 -337 -435 -26 -51 -56 -120 -52
-120 1 0 -6 -18 -15 -39 -9 -22 -19 -49 -21 -60 -36 -161 -38 -173 -37 -291 0
-125 5 -205 14 -205 3 0 5 -10 4 -23 -1 -12 2 -30 7 -39 4 -10 10 -30 12 -45
5 -41 17 -83 32 -112 11 -21 11 -28 -2 -42 -10 -12 -12 -19 -4 -24 6 -3 9 -2
8 3 -2 6 2 9 7 8 6 0 10 -13 10 -28 0 -14 4 -26 10 -25 5 1 11 -8 13 -20 2
-13 8 -23 13 -23 6 0 9 -8 7 -17 -4 -23 38 -63 62 -58 13 3 17 -1 13 -11 -3
-9 0 -14 7 -12 23 6 19 -36 -6 -59 -14 -13 -20 -23 -14 -23 6 0 8 -5 4 -12 -6
-10 -5 -10 8 -1 8 7 18 10 21 6 4 -3 -1 -12 -11 -20 -9 -8 -11 -12 -4 -8 6 3
12 2 12 -4 0 -5 -6 -12 -12 -14 -10 -4 -10 -6 0 -6 8 -1 16 8 19 18 5 20 43
37 43 19 0 -5 5 -6 11 -3 6 4 5 -2 -2 -13 -7 -12 -17 -18 -22 -15 -5 3 -3 9 4
14 10 6 10 9 2 9 -7 0 -17 -9 -23 -20 -9 -16 -8 -19 7 -13 16 6 16 5 0 -17 -9
-14 -17 -29 -17 -35 0 -5 9 5 20 23 25 40 30 40 25 2 -2 -20 0 -28 7 -24 7 5
9 2 6 -8 -4 -8 0 -15 7 -15 11 0 11 5 4 20 -6 10 -8 21 -5 24 3 3 11 -6 17
-21 13 -27 24 -33 34 -16 3 6 11 10 17 10 6 0 6 -6 -2 -15 -11 -13 -11 -18 0
-28 10 -9 11 -9 6 1 -4 7 -3 19 4 27 9 11 7 16 -10 25 -12 6 -19 14 -16 17 7
7 -13 33 -25 33 -10 0 10 -41 25 -51 4 -4 3 -9 -2 -13 -10 -6 -28 16 -31 37
-1 4 -4 7 -7 6 -4 0 -10 5 -15 12 -8 14 16 49 34 49 5 0 -1 -9 -14 -20 -13
-10 -19 -19 -12 -20 6 0 14 4 18 9 6 11 61 -39 57 -51 -1 -5 5 -8 14 -8 9 0
12 5 8 12 -4 6 -3 8 4 4 5 -3 13 0 15 6 4 10 8 10 16 -2 5 -8 7 -18 5 -22 -3
-4 -1 -8 5 -8 5 0 17 -3 25 -6 12 -4 15 -2 11 9 -5 10 1 14 20 14 18 0 23 -2
14 -8 -7 -4 -17 -5 -23 -2 -5 3 -6 1 -2 -5 3 -6 2 -13 -4 -17 -15 -9 -12 -28
4 -22 7 3 19 0 25 -6 7 -7 12 -7 11 -2 -5 21 1 29 10 15 5 -8 12 -11 17 -7 10
11 -18 28 -32 19 -5 -3 -17 -7 -25 -9 -10 -1 -9 3 4 13 12 8 29 11 40 8 19 -6
20 -5 6 11 -9 11 -10 16 -2 11 6 -4 12 -2 12 3 0 6 5 11 11 11 8 0 8 -4 0 -13
-8 -10 -7 -17 2 -27 10 -10 9 -11 -3 -5 -12 6 -12 5 -3 -5 6 -7 9 -20 6 -29
-4 -13 -3 -14 5 -2 9 12 13 12 26 2 8 -7 21 -11 28 -8 9 4 8 6 -3 6 -15 1 -20
34 -6 47 3 4 2 16 -4 28 -9 19 -9 19 4 4 11 -14 16 -15 27 -5 12 10 12 9 1 -5
-11 -15 -10 -17 8 -15 13 1 20 6 17 14 -3 7 -1 15 4 18 5 3 7 -9 5 -26 -4 -26
-2 -29 10 -19 8 7 15 9 15 4 1 -5 7 5 15 21 11 22 13 24 9 6 -4 -16 -3 -21 5
-16 7 4 18 1 26 -5 12 -10 15 -9 15 4 0 19 30 17 56 -4 16 -14 16 -13 5 7 -10
19 -9 22 4 17 8 -3 12 -10 9 -15 -3 -5 2 -9 11 -9 9 0 13 5 10 10 -3 6 -1 10
4 10 18 0 12 -19 -10 -30 -14 -8 -24 -8 -33 -1 -9 7 -16 7 -26 -2 -9 -8 -11
-9 -6 0 3 6 1 15 -5 19 -8 4 -9 3 -5 -4 7 -11 -6 -17 -29 -13 -5 1 -2 -5 7
-15 14 -14 20 -15 32 -4 19 15 22 0 4 -18 -9 -9 -9 -12 0 -12 7 0 12 5 12 11
0 5 5 7 10 4 6 -3 10 -1 10 4 0 6 5 11 11 11 5 0 7 -5 3 -12 -4 -7 -3 -8 5 -4
6 4 9 12 6 17 -4 5 -2 9 3 9 19 0 21 -14 5 -34 -17 -20 -17 -20 1 -6 39 30 62
57 58 68 -2 7 1 12 8 12 6 0 8 6 4 13 -4 6 -4 9 1 5 4 -4 15 -2 24 5 14 11 14
10 2 -5 -9 -13 -10 -18 -2 -18 7 0 9 -5 5 -11 -5 -8 -9 -8 -14 1 -5 9 -9 9
-14 1 -4 -6 -2 -11 5 -11 7 0 4 -6 -7 -14 -10 -8 -15 -18 -11 -23 5 -4 14 0
21 9 10 13 15 15 24 6 7 -7 12 -9 12 -5 0 4 10 3 21 -4 15 -8 19 -8 15 0 -4 6
-1 11 8 11 8 0 14 8 13 19 -1 12 -7 18 -17 16 -10 -2 -16 5 -18 18 -1 15 1 18
7 9 5 -8 10 -13 12 -13 18 3 49 -15 57 -32 6 -12 11 -16 11 -9 1 6 8 12 16 12
8 0 15 5 15 10 0 10 -20 10 -30 0 -3 -3 -18 7 -33 22 -19 18 -24 29 -16 34 8
4 9 3 5 -4 -4 -7 -1 -12 8 -12 9 0 16 -5 16 -11 0 -5 5 -7 11 -4 6 4 8 14 5
22 -4 8 -1 11 5 8 6 -4 8 -13 5 -21 -3 -7 -1 -16 4 -19 10 -6 14 6 11 35 -1
11 1 11 9 -3 6 -9 16 -17 22 -17 7 0 6 6 -2 15 -7 9 -10 18 -7 22 4 3 9 -1 13
-10 5 -13 9 -14 24 -5 10 7 17 15 14 19 -2 4 1 11 7 15 7 4 9 3 5 -4 -3 -6 -2
-13 3 -17 5 -3 8 -15 6 -27 -3 -11 0 -28 6 -37 8 -12 8 -10 3 9 -6 22 -5 23 9
11 9 -7 14 -18 10 -25 -3 -6 -3 -8 2 -4 4 4 15 2 24 -4 9 -7 6 -1 -6 13 -18
19 -20 28 -11 37 9 9 7 11 -8 8 -14 -3 -20 1 -20 14 0 10 5 18 11 17 5 -1 9 3
8 9 -1 8 6 10 19 6 l22 -5 -22 -8 c-12 -5 -22 -13 -22 -18 0 -5 14 -3 30 6 25
12 29 18 19 29 -8 10 -8 14 0 14 6 0 11 -4 11 -8 0 -5 14 -8 30 -8 21 0 29 4
26 12 -3 8 0 16 7 20 7 4 9 4 5 -1 -4 -4 -3 -17 3 -28 9 -15 8 -18 -3 -11 -11
6 -11 5 1 -9 8 -10 9 -17 3 -17 -6 0 -16 8 -21 18 -6 9 -11 12 -11 5 0 -6 -9
-10 -20 -8 -13 3 -18 0 -14 -7 4 -7 2 -8 -5 -4 -6 4 -11 4 -10 -1 4 -22 -2
-44 -11 -38 -5 3 -7 12 -3 20 3 8 1 15 -4 15 -15 0 -12 -38 4 -44 9 -4 17 1
20 14 3 11 10 20 15 20 6 0 7 -7 4 -16 -3 -9 -2 -12 5 -9 5 4 7 15 4 25 -4 13
-1 18 9 16 19 -3 34 -16 18 -16 -7 0 -12 -5 -12 -10 0 -11 70 31 70 42 0 4 -5
10 -12 14 -7 5 -8 2 -3 -7 5 -8 4 -11 0 -6 -12 11 -17 47 -6 47 5 0 15 -8 22
-17 12 -14 12 -16 0 -8 -9 5 -12 4 -8 -2 3 -5 16 -9 29 -8 13 1 28 -4 33 -11
7 -10 14 -11 25 -3 13 9 12 10 -2 5 -10 -3 -18 -1 -18 4 0 16 21 22 35 10 11
-9 15 -9 15 -1 0 6 -4 11 -9 11 -10 0 -9 19 2 37 4 6 3 14 -2 17 -5 3 -14 -7
-20 -22 -13 -30 -41 -40 -36 -13 2 9 4 19 4 23 1 4 8 4 18 1 11 -4 14 -3 9 5
-7 12 5 16 33 13 8 -2 10 2 5 11 -6 10 -5 10 9 0 9 -8 21 -11 26 -8 5 4 13 1
17 -6 4 -7 4 -10 -1 -6 -4 4 -14 3 -22 -3 -10 -9 -13 -8 -13 2 -1 10 -3 9 -10
-3 -6 -10 -7 -25 -1 -40 9 -21 10 -21 11 -3 1 11 4 14 7 8 3 -10 8 -9 20 2 14
14 17 14 30 -2 12 -15 12 -13 0 8 -15 26 -13 39 5 39 5 0 7 -4 4 -9 -3 -5 1
-11 9 -14 8 -4 12 -15 10 -27 -2 -11 0 -18 5 -15 10 6 8 23 -9 54 -10 17 -10
21 -1 16 15 -9 30 13 23 32 -8 21 -26 15 -20 -7 3 -11 1 -17 -4 -14 -6 3 -16
1 -23 -5 -10 -9 -15 -8 -19 4 -4 9 -13 12 -24 9 -15 -5 -15 -4 -3 4 8 6 18 8
24 5 5 -4 7 1 3 11 -4 11 -3 15 4 11 6 -4 8 -14 5 -22 -3 -8 -1 -13 5 -11 6 2
10 7 9 12 -4 21 30 26 56 9 15 -9 22 -19 15 -21 -18 -6 -33 -40 -21 -47 6 -4
10 -3 9 2 -3 19 2 34 10 29 5 -3 11 1 15 9 3 9 -6 25 -22 40 l-27 26 29 -15
c37 -19 48 -37 33 -56 -7 -8 3 -2 22 13 19 16 43 39 53 53 18 22 46 35 33 15
-3 -5 0 -13 6 -17 7 -4 9 -3 6 3 -3 5 3 17 14 26 21 19 33 22 24 7 -3 -6 1 -7
9 -4 9 3 16 9 16 13 0 16 -13 20 -31 10 -14 -7 -19 -6 -19 3 0 6 -7 3 -16 -8
-8 -10 -13 -13 -9 -7 4 9 1 11 -9 7 -9 -3 -13 -11 -9 -17 4 -6 1 -7 -7 -2 -9
5 -11 4 -6 -4 4 -6 4 -11 -1 -10 -4 1 -15 1 -23 0 -12 -1 -12 -3 -2 -10 11 -7
9 -13 -9 -30 -12 -11 -25 -18 -28 -15 -3 3 2 11 12 18 21 16 22 23 2 23 -8 0
-12 -3 -10 -7 2 -4 -2 -7 -8 -7 -7 0 -14 10 -15 21 -1 15 1 17 7 7 7 -11 9
-11 14 0 4 11 6 11 6 1 1 -7 6 -10 11 -7 8 5 7 12 -2 23 -11 13 -11 14 1 7 11
-6 13 -4 9 7 -4 9 0 15 8 15 17 0 18 -9 2 -25 -8 -8 -8 -12 -1 -12 15 0 36 27
29 39 -9 15 13 24 28 12 22 -18 40 12 26 41 -10 21 -10 22 4 5 14 -18 14 -18
19 0 4 16 5 16 6 1 1 -25 18 -22 24 4 5 17 9 19 20 10 11 -10 17 -9 28 5 12
15 12 16 -3 10 -10 -3 -20 -3 -22 2 -3 4 11 7 32 6 20 -1 41 3 45 9 5 7 7 5 4
-4 -2 -8 -10 -14 -16 -12 -7 1 -10 -2 -6 -8 3 -6 11 -8 16 -4 5 3 17 0 26 -8
12 -9 15 -9 9 0 -9 15 6 16 22 0 7 -7 12 -9 12 -6 0 4 -7 14 -16 22 -10 10
-11 16 -4 16 7 0 9 7 6 16 -3 8 -2 12 3 9 5 -3 12 -1 16 5 9 15 25 12 25 -4 0
-20 13 -27 30 -14 13 8 12 9 -2 5 -11 -4 -18 2 -22 20 -5 19 -10 22 -20 14
-10 -8 -16 -5 -24 14 -9 20 -9 23 3 18 8 -3 12 -10 8 -16 -4 -6 0 -8 10 -4 9
3 19 2 22 -4 4 -5 10 -7 15 -4 5 3 13 -3 19 -12 6 -10 11 -13 11 -6 0 6 -5 15
-10 18 -6 4 -8 11 -5 16 4 5 2 9 -4 9 -5 0 -11 -3 -14 -7 -2 -5 -2 -2 -1 5 2
7 -2 11 -9 10 -13 -3 -17 3 -17 25 0 9 2 9 8 -1 5 -7 16 -10 26 -6 15 6 15 7
-1 21 -16 13 -16 13 5 3 28 -13 35 -9 74 43 17 23 28 34 24 24 -4 -12 -2 -17
6 -15 6 2 12 14 13 26 1 12 5 25 10 29 4 5 4 -3 0 -17 -7 -23 -6 -24 10 -9 14
14 15 21 5 40 -11 23 -10 23 5 4 13 -16 19 -18 35 -7 11 6 23 12 27 12 5 0 1
-5 -7 -10 -11 -7 -11 -10 -2 -10 7 0 10 -5 6 -11 -4 -8 -9 -7 -15 2 -7 11 -9
11 -9 1 0 -7 -5 -10 -12 -6 -7 5 -8 3 -3 -6 6 -9 4 -11 -5 -5 -9 6 -11 4 -5
-5 6 -9 4 -11 -5 -5 -9 6 -11 4 -5 -5 6 -9 4 -11 -5 -5 -9 6 -11 4 -5 -5 6 -9
4 -11 -5 -5 -9 6 -11 4 -5 -5 6 -9 4 -11 -5 -5 -9 6 -11 4 -5 -4 6 -10 3 -11
-15 -1 -20 11 -21 10 -15 -9 4 -12 2 -22 -4 -22 -26 -3 -30 -4 -37 -11 -4 -5
-3 -8 3 -8 5 0 10 -7 10 -15 0 -8 -6 -15 -13 -15 -8 0 -11 7 -8 18 4 13 3 14
-4 4 -5 -8 -12 -13 -16 -12 -4 1 -10 0 -14 -3 -4 -2 -1 -2 5 -1 7 2 12 0 12
-4 -3 -19 2 -32 13 -32 6 0 8 3 5 7 -4 3 3 11 16 18 14 7 21 18 19 30 -3 16
-2 17 12 6 14 -12 16 -11 9 5 -6 17 -5 17 10 5 9 -7 14 -18 10 -24 -3 -6 -1
-7 6 -3 6 4 8 12 5 18 -5 8 -1 9 10 5 10 -4 15 -3 11 3 -4 6 -14 9 -22 8 -9
-2 -18 3 -21 11 -3 8 0 11 6 7 6 -3 18 2 28 11 10 10 20 18 23 18 3 0 5 4 3 9
-2 5 4 6 12 3 10 -4 13 -1 9 9 -4 10 0 12 11 8 9 -3 16 -2 17 2 4 50 26 73 44
47 11 -15 14 -15 36 0 13 10 19 17 13 17 -5 0 -15 -5 -22 -12 -6 -6 -15 -8
-19 -5 -4 4 3 14 15 23 12 8 22 22 22 30 0 8 4 13 10 9 5 -3 8 -11 6 -18 -1
-7 -1 -9 1 -4 3 4 9 7 14 7 6 0 7 -5 3 -12 -5 -7 -3 -8 6 -3 10 6 9 11 -4 21
-10 7 -17 15 -16 19 1 4 -2 10 -6 13 -4 4 -4 1 1 -7 5 -9 4 -12 -3 -7 -10 6
-26 -10 -27 -26 0 -3 -4 -10 -9 -15 -5 -5 -6 -3 -2 4 5 9 2 11 -8 7 -9 -3 -14
-9 -12 -13 10 -16 -31 -5 -48 13 -16 16 -16 18 -3 13 9 -3 19 -2 22 3 3 5 13
6 22 3 12 -5 14 -3 8 8 -7 12 -6 12 7 1 11 -9 18 -10 23 -2 3 5 2 10 -3 10 -5
0 -12 10 -15 23 -6 22 -6 22 12 -2 12 -16 21 -20 25 -12 4 6 1 11 -6 11 -8 0
-6 5 5 11 12 7 16 17 12 32 -5 20 -5 20 5 4 9 -14 8 -22 -2 -34 -11 -15 -11
-16 5 -10 10 4 16 3 13 -1 -6 -11 23 -47 31 -38 4 4 0 12 -9 17 -10 5 -15 16
-12 24 9 21 27 19 20 -3 -5 -15 -4 -14 9 2 8 10 12 23 9 27 -3 5 2 9 10 9 9 0
16 -5 16 -11 0 -7 9 0 21 14 11 15 19 32 18 39 -3 26 1 39 11 33 5 -3 6 -13 3
-23 -6 -15 -5 -15 12 1 14 15 20 16 26 5 7 -10 9 -8 9 6 0 12 -5 16 -16 12 -9
-3 -21 -3 -27 1 -20 12 -47 10 -47 -4 0 -8 4 -11 10 -8 6 3 7 -1 4 -9 -3 -9
-11 -14 -17 -13 -6 1 -11 -3 -12 -10 0 -18 -15 -28 -15 -10 0 9 -6 17 -12 17
-9 0 -8 3 2 9 8 6 18 7 22 5 4 -3 8 3 8 13 0 10 8 27 17 38 10 13 14 14 10 4
-4 -13 4 -15 48 -15 39 0 52 3 48 13 -3 7 -9 13 -15 13 -5 0 -6 -4 -3 -10 3
-5 1 -10 -5 -10 -7 0 -10 6 -7 13 3 8 -4 14 -16 15 -17 1 -18 -1 -7 -8 8 -5
12 -11 10 -14 -3 -2 -16 4 -30 15 -14 11 -20 19 -15 18 6 -1 19 -1 30 0 17 1
18 3 5 11 -13 8 -12 10 3 10 9 0 17 -5 17 -11 0 -5 5 -7 12 -3 7 4 8 3 4 -4
-4 -7 -2 -12 3 -12 6 0 11 9 11 20 0 11 -3 19 -7 19 -32 -5 -30 6 5 33 36 28
40 34 25 40 -11 5 -7 6 11 3 27 -6 28 -5 15 12 -13 16 -12 17 3 4 15 -11 16
-17 6 -35 -7 -11 -11 -28 -10 -37 2 -12 -4 -16 -23 -13 -20 2 -24 -1 -16 -10
6 -7 7 -16 3 -21 -4 -4 4 -2 18 6 14 7 28 12 31 11 4 -1 5 9 2 21 -3 16 -2 18
5 8 7 -9 12 -10 16 -2 4 6 2 11 -5 11 -8 0 -7 5 2 17 10 11 10 14 2 9 -7 -4
-13 -2 -13 3 0 16 26 13 44 -5 9 -8 16 -10 16 -4 0 6 -7 13 -15 16 -8 4 -12
10 -9 16 3 5 11 4 20 -3 10 -8 14 -8 14 0 0 6 -4 11 -10 11 -14 0 -8 23 10 36
11 9 17 8 26 -4 9 -12 13 -12 19 -2 6 9 4 11 -5 5 -10 -6 -12 -4 -7 9 4 10 3
15 -3 11 -6 -3 -10 -2 -10 2 0 5 -16 9 -35 10 -19 1 -32 -3 -29 -8 3 -5 9 -7
13 -5 4 3 13 0 21 -6 12 -8 12 -9 -3 -4 -12 4 -16 2 -11 -6 4 -7 3 -8 -4 -4
-7 4 -10 -1 -7 -14 6 -29 -14 -35 -38 -11 -12 11 -19 21 -15 21 4 0 13 -7 21
-15 13 -12 16 -12 21 0 3 8 -3 16 -15 20 -10 4 -19 11 -19 18 0 8 3 8 12 -1
16 -16 33 -15 19 1 -13 16 -5 27 21 27 10 0 17 3 15 8 -2 8 6 12 25 12 6 0 3
-7 -8 -15 -17 -14 -17 -14 10 -3 15 7 23 14 17 16 -6 2 -9 8 -5 13 3 5 13 5
24 -1 16 -8 18 -8 14 5 -3 8 -11 12 -17 8 -6 -4 -8 0 -4 10 3 9 0 20 -8 24 -7
5 -15 13 -16 18 -2 6 -8 9 -15 7 -6 -1 -11 5 -11 14 0 11 7 14 24 9 13 -3 23
-1 23 4 0 5 -14 8 -31 7 -23 -2 -34 4 -45 23 l-15 26 7 -25 c6 -22 5 -23 -9
-11 -9 7 -14 17 -11 22 3 5 0 9 -5 9 -6 0 -11 -6 -11 -12 0 -9 -3 -8 -10 2 -5
8 -11 12 -14 10 -2 -3 2 -14 10 -24 8 -11 14 -14 14 -7 0 7 5 9 11 5 8 -4 7
-9 -2 -16 -11 -7 -10 -8 4 -4 12 4 16 2 11 -6 -5 -7 -3 -8 6 -3 9 6 11 4 5 -5
-6 -9 -4 -11 4 -5 10 6 11 3 2 -13 -15 -29 -14 -37 4 -22 8 7 13 16 10 20 -3
5 0 12 6 16 7 4 9 3 5 -4 -3 -6 4 -18 16 -28 14 -10 16 -14 6 -11 -12 4 -16 1
-13 -13 2 -10 -3 -21 -10 -24 -10 -3 -12 0 -8 11 4 10 2 14 -4 10 -13 -8 -37
18 -29 32 4 5 -4 19 -16 30 -23 22 -51 30 -30 9 7 -7 12 -17 12 -23 0 -5 -5
-2 -11 7 -6 11 -16 15 -27 11 -14 -5 -14 -3 2 9 13 10 15 17 8 22 -7 4 -12 3
-12 -2 0 -6 -8 -13 -17 -16 -14 -6 -14 -3 3 16 10 12 24 28 29 36 6 7 18 22
27 32 9 10 22 28 28 40 6 11 16 17 22 14 6 -4 8 -3 4 4 -3 6 -2 13 4 17 5 3
10 13 10 21 0 8 -4 13 -8 10 -8 -5 -157 27 -202 43 -14 5 -46 17 -72 26 -26
10 -45 21 -43 25 3 4 -1 7 -8 6 -17 -2 -107 37 -107 47 0 4 5 7 10 7 6 0 10 5
10 12 0 9 -3 9 -12 0 -17 -17 -31 -15 -54 5 -10 10 -36 27 -58 38 -21 11 -40
26 -43 32 -3 7 -9 11 -13 8 -5 -3 -13 2 -18 11 -5 9 -12 15 -15 15 -6 -1 -9 4
-6 12 1 4 8 32 13 55 3 12 8 28 13 35 8 13 9 18 11 60 1 19 6 26 14 21 8 -5 9
-2 5 10 -4 9 0 30 8 47 9 16 15 32 15 36 0 23 14 45 38 58 27 16 27 16 2 10
-19 -5 -22 -4 -10 4 8 6 11 11 7 11 -4 0 -3 9 4 21 7 15 17 19 32 15 21 -5 21
-5 3 9 -11 8 -15 15 -8 15 6 0 9 7 5 15 -3 10 0 15 8 13 9 -2 13 4 11 15 -2
10 3 17 13 17 9 0 15 -6 12 -12 -2 -7 3 -21 12 -31 14 -17 14 -20 -9 -38 -14
-10 -32 -16 -40 -13 -8 3 -11 2 -7 -2 4 -4 2 -13 -4 -21 -8 -9 -8 -13 -1 -13
6 0 13 4 17 10 7 11 35 2 35 -12 0 -6 -6 -6 -14 1 -9 7 -17 8 -20 2 -3 -5 -1
-11 5 -13 18 -6 -1 -37 -19 -32 -12 4 -10 0 5 -14 20 -17 21 -21 8 -32 -9 -7
-13 -15 -10 -18 3 -3 15 3 27 14 l22 19 -20 -27 c-15 -20 -22 -24 -33 -15 -11
10 -13 8 -7 -9 4 -15 2 -24 -9 -27 -8 -4 -12 -13 -9 -22 3 -8 10 -12 15 -9 5
3 6 -1 3 -9 -3 -8 2 -14 11 -14 20 0 19 11 -2 33 -16 16 -16 16 7 9 23 -7 24
-7 10 11 -11 15 -11 16 0 6 20 -17 35 -15 20 3 -11 13 -11 18 -1 28 10 9 12 8
9 -7 -1 -10 2 -21 9 -23 8 -3 10 6 8 26 -3 19 3 37 15 51 15 18 17 27 9 44
-10 21 -10 21 6 1 9 -11 19 -19 23 -17 4 1 8 -6 10 -18 2 -11 8 -18 13 -14 5
3 6 10 3 16 -4 6 -2 8 4 4 6 -3 13 -2 16 3 3 5 -3 11 -14 14 -21 5 -28 27 -9
27 5 0 7 -4 4 -10 -11 -17 22 -11 36 7 12 15 12 16 -3 10 -11 -4 -22 3 -33 21
-16 27 -16 27 3 5 20 -22 51 -16 37 7 -5 8 -4 11 3 6 6 -3 15 2 21 11 6 10 11
13 11 6 0 -6 -4 -15 -10 -18 -5 -3 -10 -12 -10 -18 1 -7 10 -1 21 12 16 20 22
22 32 11 10 -10 9 -11 -2 -5 -10 6 -12 4 -6 -5 6 -9 4 -11 -5 -5 -9 6 -11 4
-5 -5 6 -9 4 -11 -5 -5 -9 6 -11 4 -5 -5 6 -9 4 -11 -6 -5 -12 8 -12 6 0 -8 7
-10 9 -17 3 -17 -6 0 -12 5 -14 12 -3 9 -6 9 -12 0 -4 -7 -2 -12 4 -12 6 0 8
-5 4 -11 -5 -8 -1 -8 14 0 11 6 29 8 39 5 13 -4 12 -2 -3 8 -20 12 -21 14 -6
28 9 8 19 15 22 15 3 0 4 4 2 8 -1 4 5 7 15 5 10 -2 19 5 22 20 3 13 11 23 16
23 6 0 10 8 9 19 0 15 5 18 28 15 15 -2 31 1 34 7 4 7 2 8 -4 4 -17 -10 -15 9
1 23 8 6 18 7 22 3 5 -4 5 -1 1 6 -4 7 -2 12 5 12 8 0 9 3 0 13 -6 8 -9 16 -6
19 3 2 -2 5 -10 5 -8 0 -11 -5 -8 -11 3 -6 3 -8 -2 -4 -11 11 -36 -12 -28 -25
4 -6 1 -7 -7 -2 -9 6 -11 4 -5 -5 5 -9 4 -11 -4 -6 -6 4 -9 12 -5 17 3 5 0 16
-6 24 -9 11 -9 15 -1 15 6 0 11 -4 11 -10 0 -5 5 -10 10 -10 7 0 7 7 0 20 -8
15 -8 20 2 18 8 -2 12 7 12 24 -1 15 2 25 7 22 4 -2 6 -11 2 -19 -4 -11 -1
-13 11 -9 9 3 14 9 12 13 -3 4 0 13 6 21 8 12 9 12 4 -3 -4 -12 1 -20 16 -26
19 -7 19 -8 4 -14 -10 -4 -22 -4 -27 -1 -11 7 -39 -14 -39 -28 0 -6 7 -5 15 2
8 7 22 10 30 6 8 -3 15 -1 15 5 0 6 4 8 9 5 13 -9 17 12 16 82 -1 34 1 60 4
57 3 -3 6 -23 6 -43 0 -29 4 -37 18 -36 13 2 16 -3 12 -20 -5 -19 -4 -19 7 2
8 15 18 22 30 19 27 -7 22 0 -12 16 -16 9 -28 11 -27 5 1 -6 -5 -13 -13 -15
-10 -3 -11 -2 -4 4 6 4 10 16 8 26 -2 13 2 15 14 8 11 -6 20 -4 30 7 12 15 12
14 7 -8 -6 -24 -5 -24 9 -6 20 24 2 40 -27 24 -15 -8 -18 -7 -12 3 6 9 3 11
-8 6 -9 -3 -19 -2 -22 4 -4 5 -1 8 7 7 7 -2 12 3 10 10 -1 8 2 11 9 6 8 -5 10
-2 7 7 -4 10 1 15 13 16 10 1 19 -2 19 -7 0 -4 9 -6 20 -3 16 4 19 2 14 -12
-5 -12 -9 -13 -14 -5 -5 9 -9 9 -14 1 -4 -6 -2 -12 3 -12 38 -4 51 -2 49 6 -2
6 -6 9 -10 8 -4 -2 -5 4 -1 12 4 12 9 13 19 4 11 -9 15 -8 20 5 3 9 11 13 18
9 6 -3 6 -1 -1 8 -18 18 -16 34 2 19 8 -7 15 -11 16 -9 6 31 6 39 -2 39 -6 0
-8 4 -4 10 3 5 11 7 18 5 17 -7 46 15 29 22 -19 7 -4 23 16 16 18 -7 17 -5
-11 17 -10 7 -17 9 -16 4 4 -22 -2 -23 -21 -4 -23 23 -27 38 -5 20 9 -7 18
-10 22 -7 3 4 12 2 20 -5 16 -13 22 -8 27 19 3 12 -1 20 -10 20 -17 0 -19 -14
-2 -19 8 -3 9 -6 1 -11 -5 -3 -15 5 -22 19 -6 14 -7 23 -3 20 5 -3 19 5 31 18
19 20 21 28 11 48 -11 22 -11 22 5 3 9 -11 19 -19 23 -17 12 6 23 32 17 42 -3
5 3 14 14 20 13 6 18 17 15 28 -3 9 2 6 10 -8 13 -22 21 -21 17 2 0 4 7 4 16
1 9 -4 14 -2 10 3 -3 6 -2 16 3 24 5 8 4 22 -1 33 -9 16 -8 17 8 9 18 -10 25
-12 44 -12 5 0 7 -5 3 -11 -3 -6 -9 -7 -13 -3 -12 18 -30 13 -26 -6 2 -11 1
-20 -3 -20 -4 0 -8 -13 -8 -30 -1 -16 2 -27 7 -24 5 3 9 11 8 17 -3 27 2 38
14 31 7 -5 6 0 -3 11 -14 16 -13 17 5 12 14 -5 24 -1 33 14 8 12 9 18 3 14 -6
-3 -11 1 -11 10 0 9 -4 13 -10 10 -19 -12 -10 7 13 27 17 16 18 18 4 14 -11
-4 -16 -2 -12 5 4 6 13 8 21 5 7 -3 16 -1 19 4 4 6 -2 10 -12 11 -11 0 -13 3
-5 6 6 2 10 8 8 12 -3 4 11 7 30 8 19 0 34 -3 34 -8 0 -5 -6 -8 -12 -6 -7 1
-12 -4 -10 -11 1 -8 -2 -11 -8 -7 -6 3 -8 11 -5 16 4 5 1 9 -5 9 -6 0 -8 -11
-6 -25 3 -14 1 -23 -3 -21 -4 3 -8 -2 -8 -10 0 -11 6 -9 23 7 21 20 23 20 33
2 6 -10 11 -13 11 -6 0 6 -5 15 -10 18 -6 4 -7 11 -4 17 4 6 10 5 15 -3 8 -12
11 -12 18 1 5 8 7 18 5 22 -10 15 9 8 21 -8 11 -15 12 -15 10 4 -1 12 -4 25
-8 28 -14 14 -7 26 7 14 11 -9 19 -9 33 0 15 9 14 10 -7 4 -22 -6 -23 -5 -12
9 10 12 10 16 0 20 -9 3 -8 9 6 19 13 10 15 17 8 22 -13 8 -35 -2 -28 -12 2
-4 -2 -18 -11 -32 -8 -14 -12 -17 -9 -7 8 26 -2 20 -18 -12 -11 -20 -23 -28
-42 -28 -17 0 -22 2 -13 7 6 5 18 6 26 3 7 -3 13 0 13 6 0 6 -4 11 -10 11 -5
0 -10 5 -10 11 0 8 5 7 16 -2 14 -11 15 -10 12 6 -1 11 3 20 10 21 6 1 17 2
23 3 5 0 8 5 4 10 -3 5 0 13 5 16 7 5 5 12 -7 22 -16 13 -16 13 5 3 28 -14 39
-8 17 10 -8 7 -15 16 -15 20 0 5 14 -5 31 -21 25 -23 28 -31 20 -48 -14 -26
-14 -28 5 -35 14 -5 15 -4 5 8 -7 9 -8 17 -2 20 5 3 9 22 8 41 -1 26 -4 32
-13 24 -9 -7 -16 -4 -24 11 -11 20 -10 21 11 10 20 -11 21 -10 15 6 -6 15 -4
16 5 7 6 -6 13 -23 14 -36 2 -14 8 -34 15 -44 11 -17 11 -17 5 2 -4 11 -8 31
-9 45 -1 14 -5 31 -9 38 -11 16 1 16 17 -1 7 -7 12 -25 10 -39 -2 -25 -1 -25
15 -10 12 13 13 18 3 20 -9 3 -6 11 10 27 16 16 25 20 30 12 4 -7 7 -4 7 8 1
33 4 55 8 55 3 0 14 -5 26 -11 12 -7 19 -9 16 -5 -8 9 43 62 55 58 5 -2 4 3
-3 11 -13 17 -47 15 -44 -2 3 -12 -13 -15 -20 -3 -2 4 -2 2 -1 -5 2 -7 -3 -10
-12 -6 -8 3 -13 8 -10 10 3 3 -5 15 -18 27 -12 11 -15 16 -6 10 37 -26 41 -26
36 1 -4 22 -2 25 9 15 8 -6 11 -18 8 -27 -5 -13 -3 -13 16 -2 17 11 25 11 41
1 11 -7 20 -8 20 -3 0 5 -6 11 -12 14 -9 3 -8 10 6 23 15 15 18 16 13 3 -9
-27 7 -41 22 -18 9 15 9 19 0 14 -7 -5 -10 -3 -7 6 3 8 14 13 24 11 18 -3 18
-3 0 10 -17 14 -17 15 8 32 15 9 24 21 21 25 -8 14 21 21 34 8 6 -6 11 -8 11
-5 0 4 -7 13 -15 22 -15 15 -50 11 -40 -4 3 -5 1 -11 -5 -15 -6 -4 -8 -11 -5
-16 4 -5 1 -9 -4 -9 -6 0 -11 5 -11 11 0 5 -5 7 -11 3 -8 -5 -8 -9 1 -14 9 -5
9 -9 1 -14 -6 -4 -11 -4 -12 1 -3 27 -7 51 -13 68 l-8 20 13 -20 c17 -29 17
-29 32 -16 8 6 13 22 12 36 -3 20 0 23 13 16 10 -4 24 -6 32 -4 12 4 12 3 2
-5 -29 -20 15 -20 47 0 25 16 29 23 20 34 -14 17 2 18 21 2 12 -11 12 -10 1 5
-8 9 -12 19 -10 20 2 1 12 9 22 16 14 11 20 11 32 1 13 -11 14 -10 9 3 -3 8
-12 18 -20 21 -8 3 -14 10 -14 16 0 6 5 8 12 4 18 -11 58 -13 58 -2 0 5 -9 6
-21 3 -20 -7 -20 -5 6 29 15 20 32 36 38 36 6 0 7 3 4 7 -4 3 -2 12 4 19 8 10
16 11 29 4 13 -7 21 -6 26 2 4 7 4 10 -1 6 -11 -11 -47 11 -39 24 4 6 3 8 -3
5 -5 -3 -22 5 -39 19 -29 25 -29 25 -1 8 15 -9 27 -13 27 -10 0 4 8 2 18 -3
15 -8 28 -2 68 34 27 25 53 45 57 45 5 0 5 5 1 11 -4 8 1 9 17 5 13 -3 18 -3
11 0 -6 3 -10 10 -6 15 3 5 0 8 -7 7 -6 -2 -13 2 -16 9 -6 16 27 10 38 -8 7
-11 9 -11 9 -1 0 7 4 10 10 7 6 -3 7 1 3 10 -4 12 -8 13 -13 5 -4 -7 -9 -8
-12 -4 -4 8 -4 17 1 42 1 4 6 0 11 -8 9 -13 12 -13 21 3 9 15 13 16 27 5 9 -7
14 -8 10 -4 -4 5 -2 16 5 25 10 14 10 14 -3 4 -10 -8 -21 -9 -30 -3 -8 6 -13
10 -10 11 36 6 44 9 53 18 8 8 8 11 0 11 -7 0 -15 -5 -18 -11 -5 -6 -13 -2
-22 11 -14 19 -13 23 5 43 10 12 25 31 31 42 11 19 12 19 6 -3 -4 -15 -2 -22
5 -20 7 2 15 -3 18 -11 3 -10 0 -12 -12 -8 -11 5 -15 3 -10 -5 5 -7 3 -8 -6
-3 -9 6 -11 4 -5 -6 7 -12 6 -12 -7 -1 -13 10 -17 10 -21 -2 -4 -9 -2 -18 3
-21 6 -4 10 -1 10 5 0 6 4 9 9 5 5 -3 12 -1 16 5 9 15 25 12 19 -4 -3 -7 2
-16 11 -20 11 -4 14 -2 8 7 -4 6 -8 23 -9 37 -4 42 -10 61 -23 69 -9 6 -7 10
7 13 16 5 19 2 14 -11 -5 -14 -4 -14 11 -2 13 10 15 17 6 27 -6 8 -16 11 -22
7 -6 -3 -7 -1 -3 6 6 9 11 9 22 0 11 -9 15 -8 18 2 13 43 14 44 15 26 1 -10 5
-16 11 -12 5 3 7 12 4 19 -3 8 4 16 17 19 18 5 20 9 10 20 -17 21 11 30 36 12
10 -8 13 -15 8 -15 -6 0 -16 5 -23 12 -9 9 -12 9 -12 0 0 -7 6 -12 13 -12 6 0
4 -5 -6 -11 -9 -6 -14 -15 -11 -21 5 -7 2 -9 -8 -6 -8 4 -15 0 -15 -8 0 -7 5
-10 11 -7 6 4 5 -1 -2 -9 -8 -9 -19 -15 -26 -12 -9 3 -13 -3 -12 -18 1 -14 -4
-22 -12 -20 -8 1 -11 -2 -6 -9 5 -8 3 -9 -6 -4 -9 6 -11 4 -5 -5 6 -9 4 -11
-6 -5 -8 5 -11 4 -6 -1 5 -5 13 -9 17 -9 5 0 17 -9 26 -20 15 -19 15 -18 1 6
-15 26 -13 39 5 39 5 0 6 -4 3 -10 -3 -5 -1 -10 5 -10 6 0 9 -4 6 -9 -7 -11
21 -8 31 4 4 4 3 5 -4 1 -8 -4 -18 5 -29 25 -13 26 -13 31 -2 26 8 -3 21 -1
29 4 11 7 11 9 1 9 -7 0 -11 4 -7 10 3 5 11 8 18 6 7 -1 9 -1 5 1 -5 3 -8 9
-8 14 0 6 4 8 9 5 11 -7 43 28 34 37 -3 4 -1 7 5 7 7 0 12 -8 12 -17 0 -10 9
1 21 24 13 27 25 40 33 36 6 -4 5 1 -3 10 -12 15 -10 18 10 26 17 6 26 5 32
-5 9 -16 27 -19 27 -3 0 5 -4 8 -9 5 -5 -3 -11 1 -15 9 -3 8 -12 12 -20 9 -10
-4 -13 0 -10 14 6 21 34 26 34 6 0 -7 4 -16 10 -19 7 -4 7 3 0 19 -7 21 -6 26
5 26 8 0 15 5 15 11 0 5 4 8 9 5 11 -7 9 -24 -3 -46 -7 -12 -6 -13 5 -2 14 13
21 65 7 56 -17 -11 -7 16 14 35 17 17 24 18 37 8 9 -6 7 -1 -4 12 -16 20 -17
23 -3 18 9 -3 23 2 34 14 16 18 16 19 1 13 -10 -3 -17 -1 -17 5 0 6 8 11 18
11 26 0 34 11 21 26 -8 10 -5 13 15 11 14 -1 24 1 23 4 -1 4 7 17 18 30 11 12
15 19 9 16 -7 -4 -15 0 -18 9 -8 21 -8 26 3 20 4 -3 23 6 41 19 19 14 29 25
23 25 -7 0 -10 9 -8 20 2 11 0 20 -6 20 -9 0 -13 -15 -10 -34 1 -5 -4 -6 -12
-3 -7 3 -14 -1 -14 -8 0 -7 7 -11 16 -8 14 4 14 3 1 -5 -8 -6 -18 -8 -24 -5
-5 4 -6 1 -1 -7 5 -9 4 -11 -3 -6 -19 12 -35 -4 -21 -20 10 -12 9 -13 -5 -8
-18 7 -20 16 -7 30 5 5 11 18 13 29 2 11 9 21 16 21 6 1 17 2 23 3 5 0 7 6 4
11 -4 6 -11 7 -17 4 -7 -4 -8 -2 -4 4 4 6 14 8 23 5 12 -5 14 -3 7 8 -15 25
-13 37 7 32 10 -3 19 -1 19 5 0 6 -8 12 -17 14 -15 3 -14 5 4 10 14 4 27 0 35
-10 8 -10 9 -13 1 -9 -7 4 -14 -1 -18 -12 -4 -13 -12 -18 -23 -15 -11 3 -9 -1
6 -12 12 -9 22 -22 22 -30 0 -7 4 -16 10 -19 7 -4 7 2 0 19 -5 14 -7 33 -3 41
8 23 39 14 35 -10 -2 -16 -1 -17 7 -5 7 10 5 20 -6 33 -14 14 -14 20 -3 30 10
9 11 9 6 0 -7 -12 31 -39 41 -29 3 3 -5 10 -18 15 -13 5 -22 10 -19 11 3 1 13
3 23 5 26 5 27 8 10 30 -15 20 -15 20 -8 -2 9 -32 -3 -29 -16 3 -7 21 -6 31 6
44 8 9 12 20 8 25 -5 4 3 4 15 0 22 -6 23 -5 13 14 -10 17 -9 20 5 14 13 -5
15 -3 9 8 -7 11 -6 12 7 2 8 -7 19 -9 24 -5 4 4 3 0 -4 -9 -6 -9 -8 -20 -4
-25 4 -4 -1 -2 -10 5 -15 11 -17 10 -13 -8 3 -14 -1 -18 -11 -14 -16 6 -44
-13 -44 -30 0 -5 9 -2 20 8 11 10 23 15 27 12 3 -4 1 -7 -4 -7 -12 0 -12 -25
0 -37 12 -11 56 49 49 67 -4 12 -2 13 9 3 7 -7 17 -13 23 -13 5 0 2 6 -8 13
-18 13 -17 15 7 34 15 11 23 24 19 28 -4 4 3 4 15 1 23 -7 40 8 22 20 -8 4 -9
3 -5 -4 7 -12 -6 -17 -17 -6 -9 9 4 35 14 28 5 -3 8 0 7 7 -2 6 3 14 11 17 8
3 11 0 7 -7 -4 -7 -1 -9 8 -5 11 4 14 0 11 -16 -2 -13 -1 -20 2 -16 15 14 10
37 -9 47 -19 10 -19 11 7 25 15 8 32 11 38 7 5 -3 7 -1 3 5 -3 5 0 13 6 16 7
3 2 3 -12 -1 -22 -5 -23 -4 -11 11 8 9 20 15 28 12 8 -3 11 -1 8 4 -3 6 0 10
7 10 10 0 9 3 -2 9 -8 6 -17 8 -20 6 -3 -1 -12 4 -20 13 -13 14 -12 15 3 9 12
-4 16 -1 14 11 -1 9 2 18 7 19 16 3 25 27 14 40 -8 11 -7 12 6 7 11 -4 15 -13
11 -23 -4 -9 -7 -20 -8 -26 -1 -5 -6 -13 -12 -17 -6 -4 -2 -13 10 -22 11 -8
22 -12 25 -9 3 3 -1 8 -7 10 -7 3 -13 9 -13 14 0 6 9 5 23 -1 18 -9 20 -9 7 2
-23 20 -23 46 0 58 13 7 20 7 20 0 0 -5 8 -10 18 -10 15 1 15 2 -3 12 -11 7
-24 13 -30 14 -5 0 -17 2 -25 3 -12 1 -11 4 3 12 13 8 27 5 55 -11 l37 -22
-28 22 c-15 12 -24 26 -21 32 3 5 -3 12 -15 15 -12 3 -21 9 -21 15 0 5 10 3
23 -3 12 -7 23 -12 25 -11 11 8 12 -1 1 -15 -10 -11 -10 -14 -1 -9 7 4 12 2
12 -5 0 -10 3 -10 11 -2 16 16 -17 64 -39 56 -9 -3 2 7 25 23 23 15 39 32 36
37 -3 6 -1 7 5 3 6 -3 13 -2 17 4 5 9 -6 14 -26 12 -3 -1 -6 6 -6 14 0 10 4
11 11 4 16 -16 30 -12 16 5 -9 10 -9 15 -1 15 6 0 11 -5 11 -11 0 -5 5 -7 10
-4 8 5 7 11 -1 21 -8 10 -8 14 0 14 6 0 11 -5 11 -11 0 -5 5 -7 10 -4 8 5 7
11 0 21 -7 7 -10 19 -7 26 3 8 6 5 6 -6 1 -14 4 -16 15 -7 10 8 19 6 38 -9 27
-21 46 -16 27 7 -12 14 0 18 17 6 5 -5 1 0 -9 10 -11 9 -15 18 -11 18 5 1 14
2 19 4 6 1 16 3 23 3 7 1 10 7 7 12 -3 6 -1 10 6 10 8 0 9 4 0 13 -8 10 -7 17
2 27 6 7 7 10 2 7 -6 -3 -12 3 -12 14 -1 11 5 23 13 26 7 3 12 9 9 14 -3 4
-12 6 -20 2 -8 -3 -15 -1 -15 5 0 6 8 9 18 8 22 -4 63 15 56 25 -3 5 2 6 10 3
9 -3 16 -1 16 4 0 10 7 12 57 13 23 0 26 30 3 37 -8 3 -10 0 -5 -9 6 -11 5
-12 -5 -2 -19 18 -3 30 20 15 16 -10 21 -9 30 6 11 16 11 16 6 -1 -3 -11 0
-20 9 -23 8 -4 12 -10 9 -15 -8 -14 -26 -11 -18 4 4 6 -1 5 -11 -4 -15 -14
-15 -20 -4 -40 7 -13 12 -28 11 -32 -1 -5 2 -6 8 -2 8 5 7 11 -1 21 -10 12 -9
18 5 32 17 16 18 16 12 -8 -6 -21 -5 -22 4 -7 6 9 9 21 5 26 -3 5 -1 12 4 15
5 3 12 -2 16 -12 6 -16 7 -16 21 2 8 11 14 25 14 30 0 6 -5 4 -10 -4 -5 -8
-10 -10 -10 -5 0 6 6 17 12 23 10 10 8 12 -11 10 -13 -2 -26 3 -28 10 -3 6 0
12 7 12 6 0 8 -5 4 -12 -5 -8 -2 -9 10 -5 10 4 20 7 22 7 2 0 4 4 4 10 0 5 -5
9 -11 7 -6 -1 -14 5 -16 13 -3 10 -2 11 4 4 4 -6 16 -10 25 -9 11 2 15 -2 11
-13 -4 -10 -2 -13 5 -8 7 4 12 2 12 -4 0 -7 -7 -10 -17 -6 -11 4 -8 -1 7 -13
13 -11 28 -17 32 -15 4 3 8 -2 8 -10 0 -8 4 -17 9 -20 4 -3 6 5 4 17 -5 26 20
53 38 41 9 -5 6 -10 -9 -15 -12 -5 -22 -14 -22 -21 0 -9 3 -9 8 -2 4 6 15 13
25 17 10 4 16 11 12 16 -3 5 -1 12 4 15 5 4 11 1 14 -6 2 -7 3 -4 1 8 -3 16 2
20 21 20 14 0 25 -4 25 -8 0 -4 5 -8 12 -8 9 0 9 3 0 12 -20 20 -13 32 7 14
17 -15 20 -15 28 -3 4 8 17 17 28 20 18 4 18 5 -3 6 -12 0 -25 -6 -28 -14 -4
-8 -10 -12 -16 -9 -5 4 -5 11 1 18 8 9 7 13 -4 13 -8 0 -11 -5 -8 -11 3 -6 2
-8 -2 -3 -5 4 -19 0 -32 -8 -14 -10 -22 -11 -21 -4 2 6 -3 14 -11 17 -8 2 -11
0 -7 -6 8 -14 -2 -38 -17 -40 -7 0 -21 -3 -32 -6 -11 -2 -24 -5 -30 -5 -5 -1
-4 -5 3 -10 11 -7 11 -9 0 -14 -9 -3 -14 2 -15 14 -1 10 5 19 12 19 9 0 12 7
9 18 -5 16 -5 16 6 0 11 -17 45 -14 34 3 -3 5 -10 6 -16 3 -6 -4 -8 -2 -4 4 3
6 -3 14 -15 17 -11 4 -18 9 -16 12 3 2 14 0 25 -6 15 -8 29 -7 51 2 17 7 28
16 24 20 -3 4 -1 7 6 7 8 0 10 -7 6 -20 -5 -15 -3 -18 9 -14 9 3 13 11 9 17
-3 5 -1 7 4 4 16 -10 24 22 12 46 -9 20 -9 20 9 -2 17 -21 20 -21 25 -6 10 24
9 27 -5 19 -6 -4 -8 -3 -5 3 6 9 26 10 59 4 4 0 5 -9 2 -18 -5 -17 -5 -17 8
-1 18 21 50 6 42 -20 -4 -9 3 -3 13 13 26 39 50 58 63 50 18 -11 51 -14 45 -4
-4 5 -10 7 -15 4 -12 -7 -42 24 -34 36 3 6 12 2 19 -8 13 -17 14 -16 8 5 -3
13 -2 22 3 20 5 -2 10 1 11 6 3 16 27 25 40 14 10 -8 12 -7 8 3 -3 8 4 24 15
36 12 13 17 29 13 39 -5 14 -3 15 16 4 13 -6 25 -9 28 -7 2 3 -5 8 -16 12 -12
3 -21 10 -21 14 0 4 -7 8 -15 8 -18 0 -18 -2 -4 -29 9 -16 8 -19 -2 -13 -8 6
-10 4 -4 -5 5 -9 4 -11 -3 -6 -8 4 -10 2 -6 -8 7 -17 -31 -41 -48 -30 -7 4 -8
3 -4 -5 4 -6 4 -11 -1 -10 -4 1 -15 1 -23 0 -11 -1 -12 -3 -3 -9 9 -6 7 -11
-7 -20 -13 -8 -20 -9 -20 -1 0 5 -5 7 -11 4 -6 -5 -4 -12 8 -21 17 -13 17 -14
-2 -8 -16 5 -17 4 -5 -5 12 -8 11 -10 -7 -8 -13 0 -25 7 -27 14 -3 7 1 10 10
6 8 -3 14 -2 13 3 -4 25 2 35 19 30 11 -4 19 -1 19 6 0 7 4 21 8 31 6 13 3 16
-9 11 -9 -3 -16 -2 -16 4 0 12 29 9 38 -4 12 -15 39 -15 39 1 0 8 -6 14 -13
13 -7 -2 -13 1 -14 6 0 6 6 11 15 12 14 2 20 -8 16 -29 -1 -5 3 -6 8 -3 13 8
7 36 -10 47 -8 5 -9 9 -3 9 5 0 15 -5 22 -12 14 -14 16 -4 3 20 -6 12 -4 24 6
37 11 14 14 15 10 3 -8 -24 4 -31 19 -10 9 13 9 19 1 25 -7 5 -2 6 11 2 15 -4
22 -2 20 5 -5 19 30 20 48 2 15 -15 16 -14 10 5 -5 16 -2 23 14 28 12 4 19 9
17 12 -3 2 -15 0 -26 -7 -14 -7 -21 -7 -21 0 0 5 4 10 9 10 10 0 71 85 71 98
0 3 -7 -4 -16 -16 -8 -12 -20 -22 -26 -22 -6 0 -5 7 4 18 9 9 13 22 11 29 -3
8 3 11 17 8 11 -2 18 0 15 6 -4 5 -1 9 6 9 7 0 9 3 6 6 -4 4 -12 2 -19 -3 -7
-6 -20 -9 -29 -8 -12 2 -15 -4 -13 -21 1 -15 -2 -22 -8 -18 -7 5 -8 2 -3 -7 8
-12 6 -12 -8 0 -12 9 -17 10 -17 2 0 -6 7 -14 15 -17 8 -4 12 -11 9 -16 -4 -6
-10 -5 -16 3 -7 11 -8 9 -4 -4 3 -10 -2 -33 -11 -50 -9 -18 -18 -26 -20 -20
-3 9 -11 8 -31 -4 l-27 -17 22 22 c12 12 28 21 34 20 6 -2 14 3 16 10 3 8 -2
10 -14 6 -14 -5 -15 -4 -3 4 8 6 17 9 22 6 4 -3 5 10 3 28 -4 34 10 62 27 51
6 -3 8 0 6 8 -3 8 -10 13 -16 12 -6 -2 -16 6 -22 17 -7 14 -7 20 0 20 5 0 10
-8 10 -17 0 -14 2 -15 13 -4 10 10 8 15 -6 26 -13 9 -15 14 -5 18 7 2 10 7 6
11 -3 4 -19 0 -35 -9 -16 -10 -21 -11 -11 -3 10 8 14 19 10 23 -4 5 -1 5 6 1
21 -12 13 8 -8 22 -12 7 -26 10 -32 6 -7 -4 -8 -3 -4 4 9 14 49 9 54 -6 2 -7
9 -9 14 -6 7 5 8 2 3 -6 -5 -8 -4 -11 3 -6 6 3 14 1 18 -5 5 -8 3 -9 -5 -4
-10 6 -10 2 0 -16 7 -13 12 -29 11 -36 -2 -6 6 -11 17 -10 11 0 18 4 15 8 -2
4 0 9 6 11 6 2 12 13 15 26 3 19 1 21 -14 12 -10 -5 -21 -6 -25 -3 -3 3 -6 0
-6 -7 0 -7 -3 -10 -7 -6 -4 4 3 16 17 28 14 11 19 17 12 13 -15 -8 -42 12 -38
28 1 7 1 9 -1 4 -3 -4 -10 -4 -15 -1 -7 4 -8 2 -4 -4 4 -7 2 -12 -4 -12 -7 0
-9 11 -7 29 3 15 0 35 -5 42 -8 11 -9 10 -4 -3 3 -10 1 -20 -4 -23 -6 -4 -10
-1 -10 4 0 6 -5 11 -11 11 -5 0 -7 -5 -3 -12 5 -7 3 -8 -6 -3 -9 5 -11 4 -6
-4 4 -6 11 -9 16 -6 5 3 12 0 15 -6 5 -7 0 -9 -12 -7 -11 2 -27 -3 -36 -11
-10 -7 -17 -9 -17 -3 0 5 7 12 15 16 8 3 12 12 9 21 -3 8 -2 15 4 15 5 0 9 14
8 30 -1 17 1 30 4 30 3 0 6 9 6 20 0 11 -4 20 -9 20 -5 0 -7 6 -4 13 7 18 -16
46 -39 50 -10 1 -54 24 -97 50 -43 26 -82 47 -87 47 -6 0 -10 3 -10 8 0 4 -25
18 -55 32 -29 13 -52 27 -49 31 2 4 -2 6 -9 5 -6 0 -48 13 -93 31 -44 18 -92
34 -105 37 -13 3 -51 12 -84 21 -64 16 -99 22 -185 31 -51 6 -59 4 -90 -22z
m33 -271 c-4 -10 -2 -14 4 -10 6 4 17 -1 24 -10 12 -14 12 -16 0 -8 -11 6 -13
4 -8 -8 3 -9 2 -19 -4 -22 -5 -4 -7 -11 -4 -16 4 -5 1 -9 -4 -9 -14 0 -14 13
1 28 16 16 -3 15 -24 -2 -20 -14 -25 -31 -7 -20 8 4 8 0 0 -15 -7 -12 -9 -26
-6 -31 3 -5 0 -12 -6 -16 -8 -4 -9 -3 -5 4 4 7 3 12 -2 12 -17 0 -22 -13 -9
-28 8 -11 8 -14 0 -9 -6 4 -13 4 -16 0 -2 -5 -2 -2 0 5 1 8 -3 12 -9 10 -16
-6 -17 -30 -3 -41 6 -5 3 -6 -8 -3 -13 4 -17 1 -15 -11 2 -9 -3 -17 -10 -19
-7 -1 -8 0 -2 3 5 2 8 9 4 14 -3 5 -2 15 3 22 4 6 8 15 9 20 1 4 3 9 4 12 1 3
3 8 4 13 8 33 20 52 33 52 9 0 13 6 10 14 -3 7 6 30 19 50 26 38 37 46 27 19z
m-6 -115 c-3 -8 -6 -5 -6 6 -1 11 2 17 5 13 3 -3 4 -12 1 -19z m73 6 c0 -8
-19 -13 -24 -6 -3 5 1 9 9 9 8 0 15 -2 15 -3z m-74 -44 c0 -12 -4 -16 -9 -11
-5 5 -6 14 -3 20 10 15 12 14 12 -9z m-29 -52 c-3 -7 -5 -2 -5 12 0 14 2 19 5
13 2 -7 2 -19 0 -25z m114 15 c13 -16 12 -17 -3 -4 -10 7 -18 15 -18 17 0 8 8
3 21 -13z m-152 -39 c-6 -8 -15 -12 -18 -8 -3 4 0 9 7 11 6 3 9 10 6 15 -4 7
-2 8 5 4 9 -6 9 -11 0 -22z m228 9 c-14 -14 -19 -15 -29 -4 -11 10 -10 11 3 6
10 -4 20 -2 24 4 3 6 9 11 13 11 3 0 -1 -8 -11 -17z m20 -25 c-15 -11 -27 -24
-27 -30 0 -6 8 -4 18 4 25 22 46 33 38 20 -10 -17 18 -20 31 -3 10 14 11 13 6
-7 -4 -15 -11 -21 -21 -17 -12 4 -13 3 -2 -10 9 -11 16 -12 25 -5 9 7 20 2 40
-17 l28 -28 -7 28 c-3 15 -3 27 2 27 4 0 8 -9 9 -21 1 -11 7 -27 14 -35 10
-13 14 -12 29 1 19 17 37 5 25 -15 -3 -5 1 -10 10 -10 9 0 13 5 10 10 -3 6 -1
10 4 10 19 0 12 -22 -9 -27 -11 -3 -17 -10 -13 -16 3 -6 1 -7 -5 -3 -7 4 -12
1 -12 -6 0 -15 -155 -121 -235 -160 -27 -14 -56 -23 -64 -20 -8 3 -11 0 -7 -7
6 -10 -6 -15 -26 -12 -5 0 -8 -3 -8 -8 0 -21 -64 -21 -107 0 -48 23 -58 34
-16 18 19 -7 29 -6 37 2 8 9 8 10 -1 5 -6 -3 -15 -1 -19 5 -4 8 -3 9 4 5 8 -5
12 0 12 13 0 12 5 21 11 21 5 0 8 4 5 8 -2 4 6 8 20 8 13 0 24 -4 24 -9 0 -5
-7 -6 -16 -3 -10 4 -13 2 -8 -6 4 -6 3 -8 -2 -5 -6 3 -9 -6 -9 -21 1 -15 -2
-32 -6 -37 -5 -6 0 -11 10 -11 11 0 17 6 14 13 -3 7 1 21 8 30 10 12 10 15 2
9 -25 -14 -13 6 25 41 23 22 28 31 15 24 -25 -13 -26 -11 -17 13 3 9 11 13 17
9 6 -3 7 -1 3 6 -4 6 0 14 10 18 14 5 13 8 -7 19 -25 13 -55 1 -43 -17 3 -5 0
-9 -7 -9 -7 0 -4 -7 7 -16 16 -13 16 -15 2 -10 -10 3 -20 1 -23 -5 -4 -5 -3
-8 2 -7 4 2 8 -1 8 -7 0 -5 -4 -8 -10 -6 -5 2 -18 3 -27 3 -23 -1 -29 10 -16
28 8 12 9 12 4 -2 -3 -10 -2 -18 2 -18 11 0 38 20 28 20 -5 0 -3 7 4 15 10 12
10 18 1 29 -10 11 -8 16 9 21 11 3 18 11 15 16 -4 5 -1 9 4 9 12 0 10 22 -3
31 -4 4 3 7 17 7 14 0 28 -6 30 -13 3 -6 -1 -12 -9 -12 -7 0 -10 5 -7 11 3 6
3 8 -1 4 -4 -3 -7 -8 -5 -10 1 -1 -3 -12 -9 -23 -9 -18 -7 -21 9 -22 10 -1 19
3 19 8 0 6 4 8 9 5 5 -3 15 2 22 11 10 12 10 14 2 9 -7 -4 -13 -5 -13 -2 0 2
-3 13 -7 23 -5 15 -4 16 8 6 11 -9 18 -8 32 2 14 10 15 14 4 24 -8 6 -18 7
-22 3 -5 -4 -5 -1 -1 6 4 6 2 12 -4 12 -7 0 -10 -6 -7 -12 2 -7 10 -12 16 -10
14 3 15 -15 1 -23 -6 -3 -13 0 -16 9 -4 9 -16 13 -37 11 -18 -2 -27 -1 -20 2
7 2 9 11 6 19 -3 7 -10 11 -16 7 -6 -4 -7 -1 -2 6 5 9 13 7 28 -9 l20 -22 13
23 c6 13 11 31 9 39 -2 9 3 17 11 17 8 0 14 -4 14 -9 0 -4 -5 -8 -11 -8 -5 0
-7 -4 -4 -10 7 -11 45 9 45 23 0 4 -5 5 -12 1 -7 -4 -8 -3 -4 5 5 7 12 9 19 3
20 -14 71 3 60 21 -4 6 -1 7 7 2 10 -6 6 -13 -13 -27z m-160 5 c0 -8 -4 -10
-12 -3 -7 5 -16 6 -20 2 -5 -4 -5 -2 -2 4 9 15 34 13 34 -3z m944 0 c13 -16
12 -17 -3 -4 -10 7 -18 15 -18 17 0 8 8 3 21 -13z m-1064 -15 c-1 -10 -2 -18
-4 -18 -1 0 -7 8 -12 18 -7 14 -6 19 4 19 7 0 13 -9 12 -19z m990 6 c-3 -3
-12 -4 -19 -1 -8 3 -5 6 6 6 11 1 17 -2 13 -5z m-966 -27 c-10 -9 -11 -8 -5 6
3 10 9 15 12 12 3 -3 0 -11 -7 -18z m69 8 c-7 -9 -15 -13 -18 -10 -3 3 -15 -3
-26 -12 -15 -14 -18 -14 -8 -2 6 9 9 19 6 22 -4 4 3 5 14 2 12 -2 24 0 27 6 4
5 9 9 12 9 3 0 0 -7 -7 -15z m52 -27 c-6 -6 -7 0 -4 19 5 21 7 23 10 9 2 -10
0 -22 -6 -28z m232 30 c-5 -8 -1 -9 12 -4 14 5 16 4 7 -5 -6 -6 -16 -8 -22 -5
-14 9 -14 26 0 26 5 0 7 -5 3 -12z m-394 -18 c0 -5 -2 -10 -4 -10 -3 0 -8 5
-11 10 -3 6 -1 10 4 10 6 0 11 -4 11 -10z m1130 7 c0 -2 -9 -12 -21 -23 -15
-14 -20 -15 -17 -4 2 8 8 18 13 22 10 8 25 10 25 5z m-1105 -37 c3 -6 -1 -7
-9 -4 -18 7 -21 14 -7 14 6 0 13 -4 16 -10z m447 -12 c-7 -7 -12 -8 -12 -2 0
14 12 26 19 19 2 -3 -1 -11 -7 -17z m64 10 c3 -4 -1 -5 -10 -4 -8 1 -18 5 -22
8 -3 4 1 5 10 4 8 -1 18 -5 22 -8z m-529 -14 c-3 -3 -12 -4 -19 -1 -8 3 -5 6
6 6 11 1 17 -2 13 -5z m7 -23 c-8 -8 -34 -10 -38 -2 -3 4 6 7 19 7 14 0 22 -2
19 -5z m1026 -1 c0 -5 -4 -10 -10 -10 -5 0 -10 5 -10 10 0 6 5 10 10 10 6 0
10 -4 10 -10z m-1005 -21 c-3 -12 -7 -24 -10 -27 -3 -3 -3 5 -1 19 6 30 5 29
10 29 3 0 3 -10 1 -21z m61 -11 c-6 -10 -15 -18 -20 -18 -4 0 -2 8 5 17 13 15
12 16 -9 11 -12 -4 -20 -2 -17 3 4 5 16 8 29 7 20 -2 22 -5 12 -20z m56 -10
c-7 -7 -12 -8 -12 -2 0 14 12 26 19 19 2 -3 -1 -11 -7 -17z m-175 -3 c0 -8 -4
-12 -9 -9 -5 3 -6 10 -3 15 9 13 12 11 12 -6z m49 -37 c12 -14 13 -18 3 -10
-9 6 -18 10 -21 7 -2 -3 -5 2 -5 10 0 19 0 19 23 -7z m1054 2 c-6 -11 -13 -20
-16 -20 -2 0 0 9 6 20 6 11 13 20 16 20 2 0 0 -9 -6 -20z m-1100 4 c0 -8 -19
-13 -24 -6 -3 5 1 9 9 9 8 0 15 -2 15 -3z m100 -15 c0 -5 -8 -9 -17 -8 -11 0
-13 3 -5 6 6 2 9 10 6 15 -4 7 -2 8 4 4 7 -4 12 -11 12 -17z m69 -5 c-20 -25
-32 -11 -20 23 1 1 8 0 16 -3 12 -5 13 -10 4 -20z m831 -4 c0 -5 -5 -10 -11
-10 -5 0 -7 5 -4 10 3 6 8 10 11 10 2 0 4 -4 4 -10z m-965 -9 c3 -5 2 -12 -3
-15 -5 -3 -9 1 -9 9 0 17 3 19 12 6z m920 -31 c3 -5 1 -10 -4 -10 -6 0 -11 5
-11 10 0 6 2 10 4 10 3 0 8 -4 11 -10z m-897 -16 c27 -4 22 -12 -6 -11 -16 1
-29 7 -29 14 0 7 5 9 11 5 6 -3 17 -7 24 -8z m737 -12 c-3 -3 -11 0 -18 7 -9
10 -8 11 6 5 10 -3 15 -9 12 -12z m-51 -10 c2 -4 -5 -9 -17 -9 -17 -2 -19 0
-7 7 18 12 18 12 24 2z m-691 -12 c3 6 5 6 3 -1 -3 -17 -33 -20 -33 -3 0 10 4
11 13 3 8 -7 14 -6 17 1z m-63 -26 c0 -8 -19 -13 -24 -6 -3 5 1 9 9 9 8 0 15
-2 15 -3z m703 -24 c7 -26 -1 -26 -11 1 l-8 20 -19 -21 c-20 -22 -20 -22 0
-19 14 3 20 -2 21 -18 1 -12 -2 -20 -7 -17 -4 2 -5 12 -2 20 5 14 3 15 -15 5
-25 -13 -44 -45 -34 -56 4 -5 2 -5 -5 -1 -7 4 -10 12 -7 19 2 7 -4 13 -16 14
-18 2 -19 0 -5 -21 8 -12 12 -26 8 -29 -10 -11 -43 -8 -43 4 0 5 -5 7 -12 3
-8 -5 -6 -11 7 -20 16 -12 16 -13 -3 -11 -11 0 -18 5 -15 10 3 5 0 7 -8 5 -8
-3 -13 -14 -11 -24 2 -14 1 -16 -6 -5 -6 8 -12 10 -16 3 -4 -6 2 -15 11 -21
10 -6 14 -11 9 -11 -5 0 -18 7 -28 17 -12 11 -18 12 -18 3 0 -6 -11 -21 -25
-31 -16 -13 -22 -26 -18 -37 3 -9 3 -14 -1 -11 -4 4 -8 16 -11 28 -2 11 -6 25
-9 29 -3 5 1 9 8 9 9 0 12 -7 8 -16 -5 -14 -4 -14 9 -1 9 8 16 19 17 23 0 5 9
15 19 22 10 7 15 17 10 21 -4 4 -7 2 -7 -4 0 -7 -5 -12 -11 -12 -5 0 -7 4 -4
10 3 6 -1 7 -10 3 -14 -5 -14 -8 -3 -15 9 -6 5 -8 -12 -4 -14 3 -19 3 -12 0
17 -8 5 -24 -14 -17 -12 4 -14 -1 -9 -26 3 -19 1 -31 -5 -31 -6 0 -8 5 -5 10
3 6 0 10 -7 10 -9 0 -9 3 2 10 9 6 11 10 3 10 -7 0 -10 7 -7 18 5 14 4 14 -4
2 -6 -8 -9 -17 -6 -21 2 -4 0 -10 -6 -14 -5 -3 -10 0 -10 7 0 9 -3 9 -10 -2
-13 -20 -12 -30 1 -30 5 0 8 4 5 8 -3 5 1 9 9 9 23 0 18 -10 -16 -30 -41 -23
-31 -34 11 -12 18 9 34 14 38 11 3 -3 -1 -6 -8 -6 -11 0 -11 -3 -2 -12 7 -7
12 -17 12 -22 0 -6 -5 -3 -11 7 -5 9 -15 17 -20 17 -6 0 -7 -6 -2 -12 9 -16
16 -54 7 -46 -3 3 -7 14 -8 24 -3 20 -26 32 -26 13 0 -8 -7 -6 -20 6 -11 10
-20 13 -20 7 0 -6 5 -14 11 -18 8 -4 8 -9 0 -17 -8 -8 -17 -4 -34 11 -22 21
-37 21 -37 0 0 -5 6 -6 13 -2 9 5 9 3 -1 -7 -11 -12 -14 -12 -22 1 -6 10 -6
16 1 19 5 1 2 9 -7 15 -15 12 -15 13 0 13 9 0 16 -5 16 -11 1 -6 8 2 16 17 15
28 16 28 36 10 12 -10 18 -12 13 -4 -5 9 -4 12 3 7 8 -5 10 -1 6 11 -4 13 -3
15 4 5 7 -11 10 -11 15 2 4 9 3 23 0 33 -5 11 -3 14 6 8 8 -4 16 -3 20 4 4 6
17 13 28 15 12 3 35 12 53 21 17 9 38 14 46 11 8 -3 14 1 14 9 0 8 5 15 11 15
5 0 8 -4 4 -9 -3 -5 -1 -13 5 -16 6 -4 10 -3 9 2 -3 19 2 33 11 33 6 0 29 12
53 27 23 15 45 27 48 26 4 -1 17 9 29 22 25 27 35 26 43 -5z m37 26 c0 -2 -7
-7 -16 -10 -8 -3 -12 -2 -9 4 6 10 25 14 25 6z m141 -39 c-10 -9 -11 -8 -5 6
3 10 9 15 12 12 3 -3 0 -11 -7 -18z m-781 -33 c0 -3 -5 -2 -11 2 -6 3 -16 0
-21 -7 -8 -12 -9 -11 -5 1 2 8 -3 21 -12 28 -9 8 -2 6 17 -3 17 -8 32 -18 32
-21z m-115 17 c3 -5 2 -12 -3 -15 -5 -3 -9 1 -9 9 0 17 3 19 12 6z m770 -11
c-3 -5 -12 -10 -18 -10 -7 0 -6 4 3 10 19 12 23 12 15 0z m76 -24 c-9 -11 -9
-15 1 -19 8 -4 7 -6 -4 -6 -21 -1 -23 10 -6 27 17 17 23 15 9 -2z m-821 0 c0
-2 -8 -10 -17 -17 -16 -13 -17 -12 -4 4 13 16 21 21 21 13z m657 -12 c-3 -3
-12 -4 -19 -1 -8 3 -5 6 6 6 11 1 17 -2 13 -5z m87 -2 c2 -4 -4 -8 -14 -8 -10
0 -16 4 -14 8 3 4 9 8 14 8 5 0 11 -4 14 -8z m40 0 c3 -5 -1 -9 -9 -9 -8 0
-12 4 -9 9 3 4 7 8 9 8 2 0 6 -4 9 -8z m-130 -20 c3 -5 -1 -9 -9 -9 -8 0 -12
4 -9 9 3 4 7 8 9 8 2 0 6 -4 9 -8z m41 -10 c-3 -3 -11 0 -18 7 -9 10 -8 11 6
5 10 -3 15 -9 12 -12z m-78 -7 c0 -8 -4 -12 -9 -9 -5 3 -6 10 -3 15 9 13 12
11 12 -6z m-6 -32 c13 -16 12 -17 -3 -4 -10 7 -18 15 -18 17 0 8 8 3 21 -13z
m220 -8 c5 4 9 1 9 -5 0 -7 -7 -10 -14 -7 -10 4 -13 1 -9 -9 3 -7 1 -14 -5
-14 -16 0 -33 27 -26 43 5 15 8 15 21 2 8 -9 19 -13 24 -10z m-291 11 c0 -3
-4 -8 -10 -11 -5 -3 -10 -1 -10 4 0 6 5 11 10 11 6 0 10 -2 10 -4z m16 -24
c-17 -16 -18 -16 -5 5 7 12 15 20 18 17 3 -2 -3 -12 -13 -22z m38 2 c3 -8 2
-12 -4 -9 -6 3 -10 10 -10 16 0 14 7 11 14 -7z m100 7 c-8 -8 -34 -10 -38 -2
-3 4 6 7 19 7 14 0 22 -2 19 -5z m-386 -21 c3 -7 0 -10 -7 -6 -6 4 -14 0 -17
-9 -5 -11 -10 -13 -19 -5 -9 8 -15 8 -20 0 -10 -16 -25 -12 -25 7 0 9 3 13 6
10 4 -3 15 -2 25 3 12 7 19 6 22 -3 3 -7 6 -4 6 6 1 21 22 18 29 -3z m192 -7
c0 -3 -7 -2 -16 1 -12 5 -15 2 -10 -11 6 -14 4 -15 -5 -6 -14 14 -3 34 16 26
8 -3 15 -7 15 -10z m-282 -23 c10 -16 10 -20 0 -18 -14 3 -28 18 -28 31 0 14
15 7 28 -13z m235 6 c4 -10 1 -13 -8 -9 -8 3 -12 9 -9 14 7 12 11 11 17 -5z
m138 -9 c-10 -9 -11 -8 -5 6 3 10 9 15 12 12 3 -3 0 -11 -7 -18z m29 3 c-6
-11 -13 -20 -16 -20 -2 0 0 9 6 20 6 11 13 20 16 20 2 0 0 -9 -6 -20z m-439
-2 c2 -13 6 -28 9 -30 1 -2 3 -13 4 -25 3 -27 -10 -31 -16 -5 -6 20 -48 27
-61 9 -6 -7 -6 -4 -2 8 4 11 8 26 8 33 0 6 5 12 10 12 5 0 6 -7 3 -16 -3 -8
-2 -13 3 -9 5 3 12 -1 15 -7 3 -7 3 -1 1 13 -2 17 2 26 11 26 8 0 15 -4 15 -9z
m479 -8 c0 -5 -2 -10 -4 -10 -3 0 -8 5 -11 10 -3 6 -1 10 4 10 6 0 11 -4 11
-10z m-263 -22 c-3 -8 -6 -5 -6 6 -1 11 2 17 5 13 3 -3 4 -12 1 -19z m87 2
c-3 -3 -9 -4 -12 -4 -4 1 -17 -2 -29 -7 -16 -6 -21 -5 -17 4 2 7 17 12 34 12
16 1 27 -2 24 -5z m-87 -42 c-3 -8 -6 -5 -6 6 -1 11 2 17 5 13 3 -3 4 -12 1
-19z m-233 0 c-3 -5 -10 -5 -16 -2 -8 5 -9 1 -5 -10 4 -10 3 -15 -3 -11 -17
11 -11 34 9 32 11 0 17 -5 15 -9z m259 -3 c-3 -9 -8 -14 -10 -11 -3 3 -2 9 2
15 9 16 15 13 8 -4z m94 -2 c0 -7 -4 -13 -8 -13 -4 0 -9 6 -12 13 -3 8 0 14 7
14 7 0 13 -6 13 -14z m-177 -14 c0 -6 -4 -7 -10 -4 -5 3 -10 11 -10 16 0 6 5
7 10 4 6 -3 10 -11 10 -16z m-80 1 c0 -5 -4 -10 -10 -10 -5 0 -10 5 -10 10 0
6 5 10 10 10 6 0 10 -4 10 -10z m-73 -6 c-3 -3 -12 -4 -19 -1 -8 3 -5 6 6 6
11 1 17 -2 13 -5z m-53 -12 c3 -5 -1 -9 -9 -9 -8 0 -12 4 -9 9 3 4 7 8 9 8 2
0 6 -4 9 -8z m156 4 c0 -3 -4 -8 -10 -11 -5 -3 -10 -1 -10 4 0 6 5 11 10 11 6
0 10 -2 10 -4z m30 -6 c0 -5 -4 -10 -10 -10 -5 0 -10 5 -10 10 0 6 5 10 10 10
6 0 10 -4 10 -10z m52 -9 c-4 -10 -7 -11 -10 -3 -2 7 -9 9 -14 6 -6 -4 -8 -3
-5 3 10 16 36 11 29 -6z m-137 -1 c3 -6 -1 -7 -9 -4 -18 7 -21 14 -7 14 6 0
13 -4 16 -10z m215 -54 c0 -6 -5 -4 -10 4 -5 8 -15 15 -21 15 -7 0 -14 10 -16
23 -3 23 -3 23 22 -4 14 -15 25 -32 25 -38z m-199 31 c-10 -9 -11 -8 -5 6 3
10 9 15 12 12 3 -3 0 -11 -7 -18z m62 -27 c-3 -3 -8 1 -10 8 -4 10 -9 9 -24
-4 -24 -22 -25 -10 -1 14 15 16 18 16 29 2 6 -8 9 -17 6 -20z m-79 -16 c3 -8
2 -13 -3 -9 -5 3 -11 0 -13 -7 -3 -7 -7 -5 -11 6 -4 10 -3 15 3 11 6 -3 10 -1
10 4 0 16 7 13 14 -5z m-54 -19 c0 -7 -30 -13 -34 -7 -3 4 4 9 15 9 10 1 19 0
19 -2z m-2 -62 c0 -10 3 -28 6 -41 7 -30 -3 -54 -20 -48 -25 10 -41 -28 -22
-51 17 -20 3 -15 -16 6 -16 17 -16 20 -1 35 14 13 14 16 2 16 -8 0 -17 -7 -21
-15 -6 -17 -26 -20 -26 -4 0 5 4 8 9 5 5 -3 11 1 15 9 3 8 13 15 23 15 10 0
14 4 8 8 -13 9 -17 32 -6 32 5 0 11 -9 14 -20 3 -13 10 -18 21 -14 9 3 13 10
10 15 -3 5 -10 7 -15 4 -5 -4 -9 -2 -9 4 0 5 6 12 13 15 9 5 9 7 0 12 -10 4
-10 8 0 19 16 18 16 18 15 -2z m-78 -43 c0 -5 -5 -10 -11 -10 -5 0 -7 5 -4 10
3 6 8 10 11 10 2 0 4 -4 4 -10z m-63 -85 c0 -8 -4 -12 -9 -9 -4 3 -8 9 -8 15
0 5 4 9 8 9 5 0 9 -7 9 -15z m-40 -99 c4 -4 1 -6 -7 -4 -8 2 -14 -3 -12 -10 1
-8 -2 -11 -8 -7 -5 3 -10 1 -10 -6 0 -7 -3 -9 -6 -6 -4 4 -2 13 4 20 7 8 9 16
6 20 -3 3 1 4 10 3 8 -1 19 -6 23 -10z m-100 -111 c-4 -8 -12 -15 -19 -14 -10
0 -10 2 0 6 6 2 12 12 12 21 0 8 3 13 6 9 4 -3 4 -13 1 -22z m-20 -49 c4 -5 2
-6 -4 -2 -8 4 -13 2 -14 -6 0 -10 -2 -10 -6 0 -2 6 -9 10 -13 7 -5 -3 -11 -1
-14 3 -7 12 41 9 51 -2z m-50 -72 c-3 -3 -12 -4 -19 -1 -8 3 -5 6 6 6 11 1 17
-2 13 -5z m20 -42 c-9 -10 -14 -22 -10 -25 5 -6 -8 -10 -27 -9 -3 0 -18 -22
-35 -50 -16 -28 -41 -63 -55 -77 -14 -15 -22 -23 -18 -18 8 12 -2 38 -12 32
-5 -3 -11 -1 -14 4 -4 5 -2 12 3 15 5 4 12 2 16 -4 4 -7 12 -7 26 0 18 10 18
12 1 37 -9 15 -12 24 -5 20 6 -4 14 -3 18 3 4 6 11 8 16 5 5 -4 9 -1 9 4 0 6
-4 11 -10 11 -5 0 -10 5 -10 11 0 8 6 7 17 -2 15 -12 16 -12 10 4 -4 10 -3 16
2 12 11 -6 42 35 35 46 -2 4 5 6 16 4 11 -2 20 1 20 8 0 8 3 8 12 -1 9 -9 8
-16 -5 -30z m-65 11 c-6 -2 -10 -9 -6 -14 3 -5 0 -9 -5 -9 -12 0 -14 13 -4 23
3 4 11 7 17 6 6 0 5 -3 -2 -6z m-42 -27 c0 -3 -4 -8 -10 -11 -5 -3 -10 -1 -10
4 0 6 5 11 10 11 6 0 10 -2 10 -4z m-69 -79 c-10 -9 -11 -8 -5 6 3 10 9 15 12
12 3 -3 0 -11 -7 -18z m43 -12 c3 -8 1 -15 -4 -15 -6 0 -10 7 -10 15 0 8 2 15
4 15 2 0 6 -7 10 -15z m-97 -60 c0 -8 -4 -12 -9 -9 -5 3 -6 10 -3 15 9 13 12
11 12 -6z m65 -71 c-22 -30 -37 -31 -20 -1 7 12 11 25 10 29 -1 4 5 5 13 2 12
-5 12 -9 -3 -30z m-82 -39 c5 -6 -1 -11 -16 -11 -13 -1 -24 2 -24 8 0 5 5 6
10 3 6 -3 10 4 11 17 0 15 3 18 6 8 3 -8 9 -19 13 -25z m-115 -25 c3 -6 -1 -7
-9 -4 -18 7 -21 14 -7 14 6 0 13 -4 16 -10z m-15 -74 c0 -2 -8 -10 -17 -17
-16 -13 -17 -12 -4 4 13 16 21 21 21 13z m-50 -26 c0 -5 -2 -10 -4 -10 -3 0
-8 5 -11 10 -3 6 -1 10 4 10 6 0 11 -4 11 -10z m23 -25 c-3 -9 -8 -14 -10 -11
-3 3 -2 9 2 15 9 16 15 13 8 -4z m-23 -9 c0 -2 -7 -7 -16 -10 -8 -3 -12 -2 -9
4 6 10 25 14 25 6z m6 -25 c-3 -5 8 -14 24 -21 22 -9 28 -16 20 -25 -5 -6 -8
-14 -5 -17 3 -2 -2 -5 -10 -5 -8 0 -15 5 -15 10 0 5 -7 4 -15 -3 -12 -10 -13
-15 -3 -28 11 -13 9 -14 -14 -9 -25 7 -26 5 -23 -22 3 -22 0 -28 -13 -27 -9 0
-16 -5 -14 -11 1 -7 -3 -13 -8 -13 -6 0 -20 -16 -31 -35 -12 -19 -25 -33 -29
-30 -4 3 -11 -2 -14 -11 -4 -9 -9 -14 -13 -11 -9 9 -34 -13 -27 -24 3 -5 0 -9
-5 -9 -6 0 -10 -6 -8 -12 1 -8 -7 -12 -18 -11 -20 1 -20 1 -1 -13 11 -8 14
-14 8 -14 -7 0 -11 -3 -10 -7 0 -5 -2 -16 -6 -25 -9 -19 -21 -15 -66 22 -21
18 -22 20 -3 11 23 -12 56 -5 48 10 -3 4 -13 6 -23 3 -14 -5 -14 -4 -2 4 8 6
17 9 21 6 9 -5 23 27 20 46 -2 10 2 9 13 -5 18 -23 21 -14 5 18 -9 20 -9 20 4
5 17 -22 30 -12 16 13 -8 15 -6 17 8 12 10 -4 21 -11 25 -17 5 -7 8 -7 8 2 0
7 -6 15 -14 18 -8 3 -12 13 -9 25 8 28 21 33 16 5 -4 -19 -1 -23 18 -22 26 1
38 31 20 49 -7 7 -9 2 -5 -17 2 -15 1 -25 -4 -22 -15 9 -12 58 3 52 20 -7 25
4 14 28 -9 19 -9 19 4 4 14 -18 29 -24 25 -10 -2 4 2 7 7 7 6 0 9 -4 7 -8 -1
-5 1 -6 6 -3 13 8 7 46 -9 58 -11 8 -11 9 2 5 24 -8 59 20 52 41 -4 13 -2 13
10 -3 17 -21 23 -10 8 15 -9 13 -6 30 5 30 3 0 3 -4 0 -9z m-41 -51 c-3 -5
-12 -10 -18 -10 -7 0 -6 4 3 10 19 12 23 12 15 0z m-35 -45 c0 -7 -30 -13 -34
-7 -3 4 4 9 15 9 10 1 19 0 19 -2z m-79 -32 c13 -16 12 -17 -3 -4 -10 7 -18
15 -18 17 0 8 8 3 21 -13z m-94 -145 c2 -17 0 -19 -7 -8 -5 8 -6 18 -4 22 8
12 10 10 11 -14z m-28 -12 c8 -10 9 -16 1 -21 -6 -4 -9 -1 -8 7 2 7 -3 12 -10
10 -8 -1 -11 2 -7 8 8 13 10 13 24 -4z m-56 -71 c-7 -21 -12 -19 -10 4 0 11 5
18 9 15 4 -3 5 -11 1 -19z m-40 0 c-3 -9 -8 -14 -10 -11 -3 3 -2 9 2 15 9 16
15 13 8 -4z m95 -59 c-7 -8 -17 -12 -22 -9 -4 3 -2 9 5 14 22 13 31 11 17 -5z
m-177 -109 c-10 -9 -11 -8 -5 6 3 10 9 15 12 12 3 -3 0 -11 -7 -18z m-55 -31
c0 -14 -5 -21 -9 -17 -4 4 -5 15 -1 24 9 24 12 21 10 -7z m44 10 c0 -2 -8 -10
-17 -17 -16 -13 -17 -12 -4 4 13 16 21 21 21 13z m-37 -63 c-4 -10 -2 -14 5
-9 6 3 13 2 16 -3 4 -5 2 -12 -3 -16 -6 -3 -7 -13 -4 -22 5 -12 2 -15 -10 -10
-15 6 -31 -7 -32 -25 0 -5 -3 -8 -7 -8 -5 0 -12 0 -18 0 -19 0 -3 42 21 53 13
7 24 19 25 27 1 23 4 30 9 30 2 0 1 -7 -2 -17z m-32 -26 c-10 -9 -11 -8 -5 6
3 10 9 15 12 12 3 -3 0 -11 -7 -18z m-21 -1 c0 -2 -8 -10 -17 -17 -16 -13 -17
-12 -4 4 13 16 21 21 21 13z m-8 -91 c14 -18 9 -26 -44 -75 -43 -40 -54 -46
-65 -34 -8 7 -21 11 -31 8 -14 -5 -15 -4 -2 5 14 10 7 16 -13 12 -5 -1 -5 3
-2 9 5 8 13 6 24 -4 24 -21 37 -20 20 2 -7 9 -9 14 -5 10 5 -4 15 0 22 10 11
14 15 15 23 3 5 -8 11 -9 15 -3 4 6 -2 16 -11 22 -16 10 -16 11 -1 6 10 -3 20
-1 23 4 4 6 2 10 -3 10 -6 0 -12 7 -15 14 -4 10 -1 13 8 10 7 -3 16 -12 19
-20 3 -7 12 -11 21 -8 8 3 12 10 9 15 -3 5 -10 6 -16 3 -7 -4 -8 -2 -4 4 4 7
2 12 -3 12 -6 0 -11 5 -11 11 0 12 27 -5 42 -26z m-98 -34 c-8 -8 -34 -10 -38
-2 -3 4 6 7 19 7 14 0 22 -2 19 -5z m-50 -122 c22 3 26 -1 12 -15 -9 -8 -16
-18 -16 -22 0 -10 -56 -72 -65 -72 -4 0 -2 6 4 14 7 8 8 17 3 20 -12 7 -33
-39 -26 -57 3 -8 -11 -25 -32 -40 -38 -26 -60 -27 -50 -1 8 20 -42 13 -55 -7
-5 -9 -9 -10 -9 -2 0 24 54 41 75 23 8 -7 15 -7 19 -1 3 5 0 11 -6 14 -7 2 -9
8 -5 13 4 5 12 2 16 -5 6 -8 11 -9 15 -3 3 6 2 13 -3 16 -5 4 -8 14 -7 24 2
12 10 16 27 14 13 -2 21 -1 17 4 -5 4 1 14 12 21 11 8 18 19 15 24 -4 5 -1 9
5 9 7 0 10 -7 6 -17 -5 -15 -4 -15 9 1 20 26 19 37 -2 29 -14 -5 -13 -3 3 13
10 11 22 16 25 11 3 -5 9 -8 13 -8z m-97 -41 c0 -13 -1 -17 -4 -10 -3 6 -10 9
-16 5 -7 -4 -6 1 2 10 17 21 17 21 18 -5z m-73 -76 c3 -5 -1 -9 -9 -9 -8 0
-12 4 -9 9 3 4 7 8 9 8 2 0 6 -4 9 -8z m16 -99 c0 18 15 23 24 9 3 -5 -8 -16
-24 -25 -28 -17 -29 -17 -25 3 2 11 0 22 -6 25 -5 4 -9 12 -9 18 0 7 9 -1 20
-18 14 -21 20 -25 20 -12z m-46 12 c3 -8 1 -15 -4 -15 -6 0 -10 7 -10 15 0 8
2 15 4 15 2 0 6 -7 10 -15z m-54 -55 c0 -5 -2 -10 -4 -10 -3 0 -8 5 -11 10 -3
6 -1 10 4 10 6 0 11 -4 11 -10z m-89 -27 c13 -16 12 -17 -3 -4 -10 7 -18 15
-18 17 0 8 8 3 21 -13z m-17 -39 c3 -8 2 -12 -4 -9 -6 3 -10 10 -10 16 0 14 7
11 14 -7z m76 -14 c11 -11 15 -22 10 -25 -6 -4 -10 -1 -10 6 0 6 -9 0 -20 -14
-20 -25 -34 -28 -57 -14 -16 10 -6 34 15 34 9 0 26 1 37 2 20 2 20 2 1 16 -11
8 -14 15 -8 15 7 0 21 -9 32 -20z m-153 -112 c-3 -8 -6 -5 -6 6 -1 11 2 17 5
13 3 -3 4 -12 1 -19z m96 -5 c-8 -12 -19 -21 -23 -18 -5 3 -10 -1 -13 -7 -3
-10 -7 -10 -20 1 -11 9 -17 10 -17 2 0 -6 -5 -10 -11 -8 -6 1 -14 -4 -16 -11
-3 -8 2 -10 14 -6 15 5 15 4 3 -5 -8 -6 -11 -11 -6 -11 5 0 -1 -11 -14 -25
-21 -22 -48 -26 -35 -4 4 5 1 9 -4 9 -19 0 -12 22 9 27 11 3 20 10 20 15 0 5
-6 6 -12 2 -10 -5 -10 -4 -1 6 14 15 36 22 67 21 25 0 58 18 52 28 -3 4 1 8 9
8 11 0 10 -5 -2 -24z m-133 -3 c0 -5 -5 -10 -11 -10 -5 0 -7 5 -4 10 3 6 8 10
11 10 2 0 4 -4 4 -10z m-36 -65 c-9 -14 -18 -25 -21 -25 -5 0 5 18 20 38 17
22 18 13 1 -13z m-113 -82 c13 -16 12 -17 -3 -4 -10 7 -18 15 -18 17 0 8 8 3
21 -13z m16 -45 c-3 -8 -6 -5 -6 6 -1 11 2 17 5 13 3 -3 4 -12 1 -19z m11 -79
c11 -14 10 -17 -5 -15 -10 0 -17 -5 -15 -11 1 -7 -2 -13 -8 -13 -13 0 -13 16
2 40 7 10 13 18 13 17 0 -1 6 -9 13 -18z m-165 -77 c4 9 6 9 6 1 2 -20 -16
-24 -30 -5 -13 15 -12 16 3 4 13 -10 17 -10 21 0z m-8 -40 c-3 -3 -11 0 -18 7
-9 10 -8 11 6 5 10 -3 15 -9 12 -12z m-74 -25 c-10 -9 -11 -8 -5 6 3 10 9 15
12 12 3 -3 0 -11 -7 -18z m36 -22 c-7 -17 -27 -21 -27 -4 0 5 5 7 10 4 6 -3
10 2 10 11 0 10 3 15 6 11 4 -3 4 -13 1 -22z m-64 -30 c-3 -9 -8 -14 -10 -11
-3 3 -2 9 2 15 9 16 15 13 8 -4z m-62 -32 c13 -16 12 -17 -3 -4 -10 7 -18 15
-18 17 0 8 8 3 21 -13z m-124 -8 c0 -8 -4 -12 -9 -9 -5 3 -6 10 -3 15 9 13 12
11 12 -6z m-63 -13 c2 -4 -5 -9 -17 -9 -17 -2 -19 0 -7 7 18 12 18 12 24 2z
m226 -2 c0 -5 -2 -10 -4 -10 -3 0 -8 5 -11 10 -3 6 -1 10 4 10 6 0 11 -4 11
-10z m-40 -41 c0 -5 -8 -9 -17 -8 -11 0 -13 3 -5 6 6 2 9 10 6 15 -4 7 -2 8 4
4 7 -4 12 -11 12 -17z m-45 -59 c3 -5 2 -10 -4 -10 -5 0 -13 5 -16 10 -3 6 -2
10 4 10 5 0 13 -4 16 -10z m-271 -38 c3 -5 -1 -9 -9 -9 -8 0 -12 4 -9 9 3 4 7
8 9 8 2 0 6 -4 9 -8z m206 -26 c-7 -7 -15 -5 -22 3 -11 10 -10 11 5 5 14 -5
16 -2 11 12 -5 16 -4 16 5 4 6 -9 7 -18 1 -24z m70 -18 c0 -5 -6 -8 -13 -5 -7
3 -24 -4 -38 -14 -13 -11 -17 -17 -8 -14 10 4 19 -1 23 -11 5 -13 4 -15 -7 -5
-11 9 -17 8 -27 -4 -8 -10 -9 -15 -2 -15 6 0 9 -7 6 -15 -4 -8 -11 -12 -17 -8
-6 4 -24 7 -39 8 -15 1 -31 5 -35 10 -5 4 0 5 9 2 10 -3 20 -2 23 3 4 6 1 10
-4 10 -6 0 -11 5 -11 12 0 9 3 9 12 0 17 -17 33 -15 18 3 -9 10 -9 15 -1 15 6
0 11 -5 11 -11 0 -5 5 -7 12 -3 7 5 5 11 -7 21 -11 7 -14 13 -9 13 6 0 16 -6
23 -12 11 -11 13 -10 8 3 -4 13 -1 16 16 12 16 -3 18 -2 8 5 -11 8 -11 10 0
14 12 4 11 8 -1 23 -12 15 -8 15 18 -4 17 -12 32 -27 32 -33z m-355 -38 c-3
-5 -12 -10 -18 -10 -7 0 -6 4 3 10 19 12 23 12 15 0z m150 1 c3 -5 2 -12 -3
-15 -5 -3 -9 1 -9 9 0 17 3 19 12 6z m-138 -30 c0 -11 -5 -18 -9 -15 -4 3 -5
11 -1 19 7 21 12 19 10 -4z m-32 -11 c-3 -5 -12 -10 -18 -10 -7 0 -6 4 3 10
19 12 23 12 15 0z m-25 -24 c0 -2 -6 -9 -14 -15 -11 -9 -16 -9 -22 0 -4 8 -3
9 4 5 7 -4 12 -2 12 3 0 6 5 11 10 11 6 0 10 -2 10 -4z m-60 -40 c0 -2 -8 -10
-17 -17 -16 -13 -17 -12 -4 4 13 16 21 21 21 13z m37 -11 c0 -17 -13 -20 -21
-6 -4 5 0 12 6 14 7 3 13 6 14 6 0 1 1 -6 1 -14z m143 -5 c0 -5 -2 -10 -4 -10
-3 0 -8 5 -11 10 -3 6 -1 10 4 10 6 0 11 -4 11 -10z m23 -5 c-3 -9 -8 -14 -10
-11 -3 3 -2 9 2 15 9 16 15 13 8 -4z m-192 -22 c13 -16 12 -17 -3 -5 -10 8
-19 9 -22 3 -3 -5 0 -12 6 -14 8 -4 9 -6 2 -6 -6 -1 -18 7 -25 16 -8 10 -9 14
-2 10 6 -4 14 -3 18 3 8 13 10 13 26 -7z m202 -23 c3 -11 2 -22 -2 -24 -4 -3
-8 6 -9 20 -2 29 4 31 11 4z m-266 -1 c-13 -8 -15 -14 -7 -29 8 -15 7 -18 -3
-14 -8 3 -20 -3 -28 -12 -12 -16 -12 -17 4 -11 25 9 21 4 -14 -22 -18 -13 -28
-18 -24 -11 6 10 3 12 -11 7 -18 -7 -18 -6 -2 6 10 8 14 18 10 22 -4 5 -2 5 4
2 9 -5 48 29 49 43 1 13 17 30 28 30 7 0 4 -5 -6 -11z m88 -9 c3 -5 1 -10 -4
-10 -6 0 -11 5 -11 10 0 6 2 10 4 10 3 0 8 -4 11 -10z m89 2 c3 -5 -1 -9 -9
-9 -8 0 -12 4 -9 9 3 4 7 8 9 8 2 0 6 -4 9 -8z m-149 -12 c3 -6 -1 -7 -9 -4
-18 7 -21 14 -7 14 6 0 13 -4 16 -10z m125 -46 c0 -8 -19 -13 -24 -6 -3 5 1 9
9 9 8 0 15 -2 15 -3z m-100 -24 c0 -5 -5 -10 -11 -10 -5 0 -7 5 -4 10 3 6 8
10 11 10 2 0 4 -4 4 -10z m-80 -4 c0 -2 -8 -10 -17 -17 -16 -13 -17 -12 -4 4
13 16 21 21 21 13z m11 -29 c-10 -9 -11 -8 -5 6 3 10 9 15 12 12 3 -3 0 -11
-7 -18z m169 13 c0 -5 -4 -10 -10 -10 -5 0 -10 5 -10 10 0 6 5 10 10 10 6 0
10 -4 10 -10z m80 -2 c0 -4 -9 -13 -20 -20 -11 -7 -20 -18 -20 -25 0 -7 -10
-12 -22 -10 -19 2 -22 -2 -20 -21 2 -12 0 -22 -5 -21 -22 4 -31 -3 -26 -19 3
-15 -1 -18 -18 -17 -13 1 -25 7 -27 13 -2 7 -8 10 -13 6 -5 -3 -9 0 -9 6 0 6
-5 8 -12 4 -6 -4 -8 -3 -5 3 4 6 22 9 41 8 26 -3 33 0 29 11 -3 8 -9 11 -14 8
-5 -3 -6 2 -2 12 5 14 8 13 19 -7 7 -13 13 -18 14 -11 0 8 5 10 13 6 6 -4 2 3
-10 15 -13 12 -23 26 -23 31 0 15 18 21 26 9 5 -8 3 -9 -6 -4 -8 5 -11 3 -8
-5 2 -7 12 -14 22 -16 11 -2 16 2 12 11 -3 9 0 12 10 8 7 -3 14 -10 14 -17 1
-10 23 21 26 37 3 13 4 14 19 14 8 0 15 -4 15 -9z m-305 -7 c6 -1 3 -5 -5 -10
-8 -6 -18 -7 -22 -5 -14 9 -8 -17 8 -33 10 -10 12 -19 6 -25 -12 -12 -35 -1
-27 12 8 13 -6 40 -19 34 -6 -3 -3 1 6 9 10 8 15 17 12 20 -3 3 2 4 13 2 10
-2 23 -4 28 -4z m125 -11 c0 -5 -5 -10 -11 -10 -5 0 -7 5 -4 10 3 6 8 10 11
10 2 0 4 -4 4 -10z m-106 -14 c-10 -8 -21 -12 -24 -10 -5 6 21 24 34 24 6 0 1
-6 -10 -14z m16 -20 c0 -2 -8 -10 -17 -17 -16 -13 -17 -12 -4 4 13 16 21 21
21 13z m75 -26 c-3 -5 -12 -10 -18 -10 -7 0 -6 4 3 10 19 12 23 12 15 0z
m-104 -37 c8 -9 9 -14 2 -10 -6 4 -13 1 -16 -5 -3 -7 -4 -3 -4 10 1 26 1 26
18 5z m80 0 c13 -16 12 -17 -3 -4 -17 13 -22 21 -14 21 2 0 10 -8 17 -17z
m-21 -28 c0 -5 -5 -3 -10 5 -5 8 -10 20 -10 25 0 6 5 3 10 -5 5 -8 10 -19 10
-25z m-46 -21 c3 -8 0 -16 -6 -20 -7 -5 -8 -2 -3 6 6 9 4 12 -7 8 -8 -4 -15
-1 -15 6 0 17 25 16 31 0z m-58 -50 c-3 -8 -10 -12 -16 -9 -5 3 -10 2 -10 -4
0 -5 5 -12 10 -14 6 -3 5 -4 -2 -3 -7 2 -13 9 -13 17 0 8 6 13 13 12 6 -2 12
7 13 20 0 12 3 16 6 9 3 -7 2 -20 -1 -28z m284 -804 c0 -5 -5 -10 -11 -10 -5
0 -7 5 -4 10 3 6 8 10 11 10 2 0 4 -4 4 -10z m41 -23 c-10 -9 -11 -8 -5 6 3
10 9 15 12 12 3 -3 0 -11 -7 -18z m40 0 c-10 -9 -11 -8 -5 6 3 10 9 15 12 12
3 -3 0 -11 -7 -18z m-4 -30 c0 -8 -6 -14 -14 -14 -9 0 -10 4 -2 14 6 7 12 13
14 13 1 0 2 -6 2 -13z m113 -7 c-6 -11 -15 -20 -20 -20 -12 0 -9 22 5 32 19
14 26 8 15 -12z m-70 -21 c15 -28 5 -23 -15 7 -9 15 -12 23 -6 20 6 -4 16 -16
21 -27z m-24 -14 c-1 -8 -5 -17 -8 -21 -5 -4 -4 16 1 34 3 9 9 -1 7 -13z m-36
-65 c0 -5 -2 -10 -4 -10 -3 0 -8 5 -11 10 -3 6 -1 10 4 10 6 0 11 -4 11 -10z
m-40 -61 c0 -4 -9 -7 -19 -6 -11 0 -18 4 -16 7 6 9 35 8 35 -1z m-73 -65 c-3
-3 -12 -4 -19 -1 -8 3 -5 6 6 6 11 1 17 -2 13 -5z m-42 -54 c-3 -5 -12 -10
-18 -10 -7 0 -6 4 3 10 19 12 23 12 15 0z m-35 -42 c0 -4 -4 -8 -9 -8 -6 0
-12 4 -15 8 -3 5 1 9 9 9 8 0 15 -4 15 -9z m60 -38 c0 -4 -6 -13 -14 -20 -12
-9 -15 -8 -13 8 1 17 27 28 27 12z m-64 -23 c0 -15 -6 -23 -18 -23 -23 0 -24
16 0 17 12 0 13 2 3 6 -11 5 -11 7 0 14 8 5 14 9 15 9 0 0 0 -10 0 -23z m-76
-17 c0 -5 -5 -10 -11 -10 -5 0 -7 5 -4 10 3 6 8 10 11 10 2 0 4 -4 4 -10z
m-59 -43 c-10 -9 -11 -8 -5 6 3 10 9 15 12 12 3 -3 0 -11 -7 -18z m-51 -57 c0
-5 -2 -10 -4 -10 -3 0 -8 5 -11 10 -3 6 -1 10 4 10 6 0 11 -4 11 -10z m-21
-14 c9 -11 9 -16 -1 -22 -7 -4 -10 -4 -6 1 4 4 3 14 -3 22 -6 7 -9 13 -6 13 2
0 10 -6 16 -14z m-59 -26 c0 -5 -5 -10 -11 -10 -5 0 -7 5 -4 10 3 6 8 10 11
10 2 0 4 -4 4 -10z m-58 -67 c-6 -2 -9 -10 -6 -15 4 -7 2 -8 -5 -4 -13 9 -5
26 12 25 9 0 8 -2 -1 -6z m-22 -35 c0 -4 -4 -8 -9 -8 -6 0 -12 4 -15 8 -3 5 1
9 9 9 8 0 15 -4 15 -9z m-140 -88 c0 -5 -5 -10 -11 -10 -5 0 -7 5 -4 10 3 6 8
10 11 10 2 0 4 -4 4 -10z m45 -20 c4 -6 -1 -7 -11 -3 -13 5 -16 2 -12 -8 3 -8
0 -23 -8 -34 -13 -18 -14 -18 -14 -1 0 11 -8 25 -17 33 -10 8 -12 12 -6 8 7
-3 21 -1 30 4 23 13 30 13 38 1z m-89 -9 c-4 -5 0 -12 6 -14 8 -3 6 -6 -4 -6
-18 -1 -24 10 -11 22 9 10 15 8 9 -2z m-71 -40 c-9 -8 -36 -10 -30 -2 2 4 11
8 20 8 8 0 13 -3 10 -6z m-121 -59 c3 -5 -1 -9 -9 -9 -8 0 -12 4 -9 9 3 4 7 8
9 8 2 0 6 -4 9 -8z m-109 -61 c3 -5 2 -12 -3 -15 -5 -3 -9 1 -9 9 0 17 3 19
12 6z m26 -10 c-6 -10 -7 -22 -3 -26 4 -5 1 -5 -6 -1 -9 5 -9 12 -2 27 6 10
13 19 16 19 2 0 0 -8 -5 -19z m-101 -11 c0 -5 -2 -10 -4 -10 -3 0 -8 5 -11 10
-3 6 -1 10 4 10 6 0 11 -4 11 -10z m34 -15 c-4 -8 -11 -15 -16 -15 -6 0 -5 6
2 15 7 8 14 15 16 15 2 0 1 -7 -2 -15z m-1339 -75 c3 -6 -1 -7 -9 -4 -18 7
-21 14 -7 14 6 0 13 -4 16 -10z m1165 -15 c0 -8 -2 -15 -4 -15 -2 0 -6 7 -10
15 -3 8 -1 15 4 15 6 0 10 -7 10 -15z m-85 -4 c3 -5 2 -12 -3 -15 -5 -3 -9 1
-9 9 0 17 3 19 12 6z m214 -12 c-16 -10 -23 -4 -14 10 3 6 11 8 17 5 6 -4 5
-9 -3 -15z m-1292 5 c-3 -3 -12 -4 -19 -1 -8 3 -5 6 6 6 11 1 17 -2 13 -5z
m998 -4 c3 -5 1 -10 -4 -10 -6 0 -11 5 -11 10 0 6 2 10 4 10 3 0 8 -4 11 -10z
m156 -12 c22 -25 23 -29 6 -22 -14 5 -41 44 -31 44 4 0 15 -10 25 -22z m-1149
-2 c6 4 8 3 5 -3 -9 -15 -46 -23 -53 -12 -3 5 -11 6 -17 2 -7 -4 -6 0 2 10 10
13 18 14 32 6 11 -5 25 -7 31 -3z m34 -3 c-2 -9 -9 -19 -17 -21 -11 -3 -11 -1
1 7 8 6 11 11 7 11 -5 0 -5 5 -2 10 9 15 14 12 11 -7z m917 2 c-3 -9 -8 -14
-10 -11 -3 3 -2 9 2 15 9 16 15 13 8 -4z m-879 -3 c3 -5 -1 -9 -9 -9 -8 0 -12
4 -9 9 3 4 7 8 9 8 2 0 6 -4 9 -8z m780 -21 c3 -5 -2 -15 -12 -22 -15 -12 -16
-12 -5 2 7 9 10 19 6 22 -3 4 -4 7 0 7 3 0 8 -4 11 -9z m-519 -30 c3 -5 2 -12
-3 -15 -5 -3 -9 1 -9 9 0 17 3 19 12 6z m200 -19 c-3 -3 -11 0 -18 7 -9 10 -8
11 6 5 10 -3 15 -9 12 -12z m60 0 c-3 -3 -11 0 -18 7 -9 10 -8 11 6 5 10 -3
15 -9 12 -12z m165 14 c0 -2 -7 -7 -16 -10 -8 -3 -12 -2 -9 4 6 10 25 14 25 6z
m-563 -26 c2 -23 -13 -35 -23 -19 -5 8 -3 9 6 4 10 -6 12 -4 7 7 -3 9 -3 19 0
22 9 8 9 8 10 -14z m431 0 c-7 -10 -14 -17 -17 -15 -4 4 18 35 25 35 2 0 -1
-9 -8 -20z m-494 -2 c-3 -4 -9 -8 -15 -8 -5 0 -9 4 -9 8 0 5 7 9 15 9 8 0 12
-4 9 -9z m93 -10 c-3 -8 -6 -5 -6 6 -1 11 2 17 5 13 3 -3 4 -12 1 -19z m30 7
c0 -8 -4 -12 -9 -9 -5 3 -6 10 -3 15 9 13 12 11 12 -6z m143 11 c0 -2 -7 -7
-16 -10 -8 -3 -12 -2 -9 4 6 10 25 14 25 6z m253 -11 c-3 -9 -8 -14 -10 -11
-3 3 -2 9 2 15 9 16 15 13 8 -4z m-338 -5 c3 -6 -1 -7 -9 -4 -18 7 -21 14 -7
14 6 0 13 -4 16 -10z m180 1 c3 -5 0 -13 -6 -17 -7 -4 -9 -3 -5 4 3 5 0 13 -6
15 -9 4 -10 6 -1 6 6 1 14 -3 18 -8z m225 -11 c0 -5 -5 -10 -11 -10 -5 0 -7 5
-4 10 3 6 8 10 11 10 2 0 4 -4 4 -10z m-393 -39 c0 -33 -22 -33 -24 -1 -1 11
2 18 8 15 5 -4 9 -1 9 4 0 6 2 11 3 11 2 0 4 -13 4 -29z m309 17 c-3 -22 -17
-39 -26 -33 -6 4 -4 14 3 25 13 23 26 26 23 8z m124 -8 c3 0 -2 -5 -11 -10
-12 -7 -30 -7 -57 -1 -2 1 -1 5 3 10 4 8 30 8 65 1z"/>
<path d="M7469 8964 c-16 -20 7 -25 25 -5 14 15 14 18 1 18 -8 0 -20 -6 -26
-13z"/>
<path d="M7430 8890 c-12 -12 -19 -24 -16 -28 4 -3 16 4 28 16 12 12 19 24 16
28 -4 3 -16 -4 -28 -16z"/>
<path d="M7603 8721 c-17 -11 -33 -19 -35 -17 -1 1 10 -11 26 -26 29 -29 47
-38 27 -14 -7 9 -8 17 -2 20 5 3 12 0 14 -6 4 -10 6 -10 6 0 1 6 6 12 12 12 5
0 8 -4 5 -9 -3 -5 2 -12 11 -15 9 -4 19 -2 23 4 5 7 11 6 20 -5 10 -12 16 -13
27 -3 12 9 14 7 10 -13 -2 -13 -2 -18 0 -11 4 12 23 17 23 6 0 -3 -5 -15 -11
-27 -10 -21 -10 -21 5 -3 9 11 16 24 16 29 0 4 5 5 10 2 6 -4 7 -11 4 -17 -4
-6 -3 -8 3 -5 5 3 16 -3 23 -14 8 -10 18 -19 23 -19 5 0 4 6 -2 14 -8 10 -9
16 -1 21 5 3 10 1 10 -6 0 -19 13 -1 17 23 3 20 2 21 -15 4 -17 -15 -21 -15
-32 -1 -7 8 -16 13 -20 10 -4 -2 -17 7 -30 20 -15 16 -27 21 -34 16 -12 -10
-60 22 -49 33 4 3 1 6 -6 6 -7 0 -11 -6 -8 -13 3 -9 -2 -13 -16 -12 -14 1 -21
8 -21 19 1 9 1 16 0 16 0 0 -15 -9 -33 -19z m33 -23 c4 -6 3 -8 -4 -4 -6 3
-13 2 -17 -4 -4 -6 -11 -8 -16 -4 -5 3 -7 10 -4 15 8 13 32 11 41 -3z m76 -16
c8 -8 16 -8 23 -2 8 7 18 3 31 -13 l19 -22 -22 18 c-14 13 -23 15 -28 7 -5 -8
-12 -7 -24 4 -12 11 -20 13 -28 5 -7 -7 -12 -6 -16 4 -6 17 28 16 45 -1z m109
-49 c13 -16 12 -17 -3 -4 -10 7 -18 15 -18 17 0 8 8 3 21 -13z"/>
<path d="M7641 8644 c0 -11 3 -14 6 -6 3 7 2 16 -1 19 -3 4 -6 -2 -5 -13z"/>
<path d="M7682 8638 c-7 -7 -12 -17 -12 -22 0 -6 5 -3 11 7 6 9 14 15 20 12 5
-4 9 -1 9 4 0 14 -13 14 -28 -1z"/>
<path d="M7590 8630 c-9 -6 -10 -10 -3 -10 6 0 15 5 18 10 8 12 4 12 -15 0z"/>
<path d="M7715 8620 c-3 -5 -1 -10 4 -10 6 0 11 5 11 10 0 6 -2 10 -4 10 -3 0
-8 -4 -11 -10z"/>
<path d="M7788 8593 c6 -9 17 -18 26 -19 9 -1 14 2 10 7 -3 5 -10 7 -15 4 -5
-4 -9 1 -9 9 0 9 -5 16 -10 16 -7 0 -8 -6 -2 -17z"/>
<path d="M7550 8580 c-13 -8 -12 -10 3 -10 9 0 17 5 17 10 0 12 -1 12 -20 0z"/>
<path d="M7615 8580 c3 -5 8 -10 11 -10 2 0 4 5 4 10 0 6 -5 10 -11 10 -5 0
-7 -4 -4 -10z"/>
<path d="M7470 8569 c0 -5 5 -7 10 -4 6 3 10 8 10 11 0 2 -4 4 -10 4 -5 0 -10
-5 -10 -11z"/>
<path d="M7735 8561 c-3 -5 -2 -12 3 -15 5 -3 9 1 9 9 0 17 -3 19 -12 6z"/>
<path d="M7491 8416 c-9 -10 -9 -16 -1 -21 6 -4 14 -4 17 -1 4 3 0 6 -8 6 -12
0 -12 2 1 10 8 5 12 12 9 15 -4 3 -12 -1 -18 -9z"/>
<path d="M7949 8364 c-7 -9 -6 -12 6 -10 22 3 40 23 20 23 -8 0 -20 -6 -26
-13z"/>
<path d="M7887 8325 c-9 -7 -17 -16 -17 -20 0 -4 6 -2 14 4 10 8 16 9 21 1 10
-15 35 -12 29 4 -8 21 -27 26 -47 11z"/>
<path d="M7826 8274 c-5 -14 -4 -15 9 -4 17 14 19 20 6 20 -5 0 -12 -7 -15
-16z"/>
<path d="M7649 8173 c-13 -16 -12 -17 4 -4 9 7 17 15 17 17 0 8 -8 3 -21 -13z"/>
<path d="M7594 8169 c-7 -12 24 -49 40 -49 6 0 3 6 -6 14 -12 9 -14 16 -7 23
7 7 6 12 -5 16 -8 3 -18 2 -22 -4z"/>
<path d="M8140 8241 c0 -6 4 -13 10 -16 6 -3 7 1 4 9 -7 18 -14 21 -14 7z"/>
<path d="M7169 7431 c-1 -3 -1 -9 0 -13 0 -5 -4 -8 -9 -8 -6 0 -20 -16 -31
-35 -12 -19 -25 -33 -29 -30 -4 3 -10 -2 -14 -10 -13 -34 13 -21 39 20 15 25
30 43 34 41 3 -2 14 6 23 18 13 18 14 23 2 23 -8 0 -15 -3 -15 -6z"/>
<path d="M6787 6925 c3 -8 9 -12 14 -9 12 7 11 11 -5 17 -10 4 -13 1 -9 -8z"/>
<path d="M6751 6896 c-9 -11 -9 -16 1 -22 7 -4 10 -4 6 1 -4 4 -3 14 3 22 6 7
9 13 6 13 -2 0 -10 -6 -16 -14z"/>
<path d="M6675 6807 c-12 -9 -14 -16 -7 -21 6 -3 16 3 22 14 13 24 10 25 -15
7z"/>
<path d="M6550 6660 c0 -5 5 -10 11 -10 5 0 7 5 4 10 -3 6 -8 10 -11 10 -2 0
-4 -4 -4 -10z"/>
<path d="M6534 6631 c4 -6 0 -14 -8 -17 -21 -8 -20 -23 1 -20 19 3 26 33 11
43 -7 3 -8 1 -4 -6z"/>
<path d="M6265 6320 c-10 -11 -24 -20 -31 -20 -13 0 -13 -25 -1 -35 4 -3 5 -2
2 2 -8 11 27 43 39 36 6 -3 8 -3 4 2 -4 4 -3 14 3 22 18 21 4 15 -16 -7z"/>
<path d="M6169 6203 c-1 -1 -2 -6 -3 -10 -4 -23 -18 -33 -31 -23 -9 8 -14 6
-19 -5 -3 -8 0 -15 7 -15 8 0 6 -4 -3 -10 -8 -5 -10 -10 -5 -10 6 0 28 17 48
38 25 25 32 39 22 39 -8 0 -16 -2 -16 -4z"/>
<path d="M6046 6068 c9 -14 -25 -60 -38 -52 -7 4 -8 3 -4 -5 10 -15 32 1 51
39 12 23 12 27 0 27 -8 0 -12 -4 -9 -9z"/>
<path d="M5944 5975 c1 -8 5 -18 9 -21 4 -4 -3 -19 -15 -33 l-22 -26 24 22
c26 24 34 59 14 67 -6 2 -11 -2 -10 -9z"/>
<path d="M5707 5708 c-7 -4 -10 -8 -7 -9 3 0 13 -2 22 -4 9 -2 22 2 27 9 11
14 -22 17 -42 4z"/>
<path d="M5596 5561 c-14 -5 -16 -10 -8 -15 7 -4 9 -13 5 -19 -3 -7 3 -4 15 7
12 10 19 23 16 27 -3 5 -6 9 -7 8 -1 0 -11 -4 -21 -8z"/>
<path d="M5056 4932 c-3 -5 1 -9 9 -9 8 0 12 4 9 9 -3 4 -7 8 -9 8 -2 0 -6 -4
-9 -8z"/>
<path d="M4992 4860 c-21 -18 -22 -19 -3 -17 11 1 18 3 16 6 -3 2 0 10 6 18
16 18 8 16 -19 -7z"/>
<path d="M4658 4493 c6 -2 10 -9 7 -14 -4 -5 1 -6 10 -2 13 5 14 7 3 14 -7 5
-17 8 -23 8 -5 0 -4 -3 3 -6z"/>
<path d="M8420 8860 c8 -5 20 -10 25 -10 6 0 3 5 -5 10 -8 5 -19 10 -25 10 -5
0 -3 -5 5 -10z"/>
<path d="M8437 8833 c-10 -9 -9 -23 1 -23 5 0 9 7 9 15 0 17 -1 18 -10 8z"/>
<path d="M8464 8802 c4 -3 14 -7 22 -8 9 -1 13 0 10 4 -4 3 -14 7 -22 8 -9 1
-13 0 -10 -4z"/>
<path d="M8515 8699 c-3 -4 2 -6 10 -5 21 3 28 13 10 13 -9 0 -18 -4 -20 -8z"/>
<path d="M8510 8619 c0 -5 5 -7 10 -4 6 3 10 8 10 11 0 2 -4 4 -10 4 -5 0 -10
-5 -10 -11z"/>
<path d="M8470 8550 c0 -6 7 -10 15 -10 8 0 15 2 15 4 0 2 -7 6 -15 10 -8 3
-15 1 -15 -4z"/>
<path d="M8455 8500 c-3 -6 1 -7 9 -4 18 7 21 14 7 14 -6 0 -13 -4 -16 -10z"/>
<path d="M8385 8470 c3 -16 0 -20 -10 -16 -18 6 -31 -12 -18 -25 6 -6 19 -2
33 11 23 20 25 20 32 3 7 -17 8 -17 5 1 -1 10 -12 25 -24 33 -21 14 -22 14
-18 -7z"/>
<path d="M8391 8420 c-9 -5 -4 -7 13 -7 29 0 32 2 13 10 -8 3 -20 2 -26 -3z"/>
<path d="M8361 8364 c0 -11 3 -14 6 -6 3 7 2 16 -1 19 -3 4 -6 -2 -5 -13z"/>
<path d="M8333 8321 c0 -11 5 -18 9 -15 4 3 5 11 1 19 -7 21 -12 19 -10 -4z"/>
<path d="M8293 8303 c4 -6 0 -13 -8 -17 -8 -3 -15 -11 -14 -18 0 -10 2 -10 6
0 2 6 8 10 13 7 4 -3 10 2 14 10 3 8 0 17 -6 21 -6 4 -8 3 -5 -3z"/>
<path d="M8069 8208 c-1 -7 -1 -16 0 -20 0 -4 -8 -10 -19 -13 -11 -4 -20 -10
-20 -14 0 -10 76 -8 86 1 4 4 13 0 21 -10 13 -15 13 -15 3 6 -6 12 -8 27 -4
33 4 7 -1 7 -16 -1 -19 -10 -22 -9 -27 9 -6 23 -22 29 -24 9z m43 -32 c8 4 10
3 5 -2 -13 -14 -58 -13 -47 1 6 7 9 14 7 16 -1 2 3 -2 10 -9 7 -8 17 -11 25
-6z"/>
<path d="M8195 8200 c3 -5 8 -10 11 -10 2 0 4 5 4 10 0 6 -5 10 -11 10 -5 0
-7 -4 -4 -10z"/>
<path d="M8175 8181 c-4 -7 -1 -10 7 -9 7 2 12 -5 11 -16 -1 -13 2 -15 10 -7
8 8 7 15 -5 27 -11 11 -18 13 -23 5z"/>
<path d="M8110 8137 c0 -2 6 -10 14 -16 11 -9 16 -9 22 1 4 7 4 10 -1 6 -4 -4
-14 -3 -22 3 -7 6 -13 9 -13 6z"/>
<path d="M7930 8120 c0 -5 5 -10 10 -10 6 0 10 5 10 10 0 6 -4 10 -10 10 -5 0
-10 -4 -10 -10z"/>
<path d="M7980 8082 c0 -5 7 -9 15 -9 8 0 12 4 9 9 -3 4 -9 8 -15 8 -5 0 -9
-4 -9 -8z"/>
<path d="M7826 8047 c5 -14 44 -41 44 -31 0 6 -40 44 -46 44 -2 0 -1 -6 2 -13z"/>
<path d="M7821 8004 c0 -11 3 -14 6 -6 3 7 2 16 -1 19 -3 4 -6 -2 -5 -13z"/>
<path d="M7913 8005 c0 -8 4 -12 9 -9 5 3 6 10 3 15 -9 13 -12 11 -12 -6z"/>
<path d="M7675 8000 c-4 -6 -12 -10 -18 -8 -17 3 -87 -34 -81 -43 2 -4 -3 -12
-13 -17 -14 -8 -15 -13 -4 -26 7 -8 10 -20 6 -26 -3 -5 -2 -10 3 -10 17 0 23
32 10 48 -11 13 -10 15 5 9 10 -4 28 -2 39 4 18 10 20 9 15 -5 -4 -9 -2 -16 3
-16 6 0 10 6 10 14 0 17 -24 38 -33 29 -4 -3 -7 -1 -7 5 0 7 9 12 20 12 11 0
20 -4 20 -10 0 -5 10 -15 23 -21 12 -6 19 -8 15 -4 -4 4 0 14 10 22 12 10 14
16 4 19 -6 3 -10 10 -7 14 3 5 1 11 -4 14 -5 4 -13 2 -16 -4z m10 -9 c-3 -5 0
-13 6 -17 8 -4 7 -9 -2 -15 -20 -12 -23 -11 -38 14 -10 17 -11 19 0 10 14 -14
30 -17 28 -5 -2 12 1 22 7 22 3 0 3 -4 -1 -9z m-75 -52 c0 -5 -4 -9 -8 -9 -5
0 -9 7 -9 15 0 8 4 12 9 9 4 -3 8 -9 8 -15z"/>
<path d="M7875 7989 c-4 -6 -5 -12 -2 -15 2 -3 7 2 10 11 7 17 1 20 -8 4z"/>
<path d="M7775 7981 c-3 -5 0 -13 6 -17 8 -5 9 -3 4 6 -6 10 -1 11 21 6 21 -5
25 -4 14 4 -19 12 -37 13 -45 1z"/>
<path d="M7614 7902 c3 -5 0 -13 -6 -15 -9 -4 -10 -6 -1 -6 17 -1 25 16 12 25
-7 4 -9 3 -5 -4z"/>
<path d="M7666 7898 c3 -5 10 -6 15 -3 13 9 11 12 -6 12 -8 0 -12 -4 -9 -9z"/>
<path d="M7590 7841 c0 -6 4 -12 8 -15 5 -3 9 1 9 9 0 8 -4 15 -9 15 -4 0 -8
-4 -8 -9z"/>
<path d="M7435 7780 c-3 -5 -3 -10 1 -10 4 0 -5 -13 -21 -30 -18 -19 -24 -30
-15 -30 8 0 0 -10 -18 -22 -17 -13 -30 -28 -27 -35 2 -7 -2 -10 -11 -6 -21 8
-17 -5 11 -39 14 -16 25 -26 25 -22 0 4 -7 16 -17 26 -18 20 -4 25 15 6 8 -8
12 -9 12 -1 0 6 -6 13 -12 16 -7 2 -10 8 -6 12 4 4 14 2 23 -5 9 -8 15 -8 15
-2 0 6 -9 14 -21 17 -11 4 -18 10 -14 13 11 11 29 8 41 -6 8 -11 13 -11 25 5
13 17 13 17 -5 3 -18 -14 -19 -13 -13 3 4 11 3 16 -3 12 -6 -3 -10 -2 -10 4 0
15 18 23 25 11 3 -5 11 -10 18 -10 6 0 2 6 -8 14 -16 12 -17 16 -6 30 10 11
18 13 31 6 13 -7 21 -7 25 0 4 6 3 10 -2 9 -19 -3 -34 2 -29 10 3 5 -1 14 -8
20 -10 8 -16 9 -21 1z m3 -39 c-13 -16 -25 -27 -27 -25 -3 2 5 15 17 27 12 13
19 27 15 32 -5 4 -2 5 5 1 9 -6 7 -14 -10 -35z"/>
<path d="M7515 7760 c-3 -5 -1 -10 4 -10 6 0 11 5 11 10 0 6 -2 10 -4 10 -3 0
-8 -4 -11 -10z"/>
<path d="M7593 7755 c0 -8 4 -12 9 -9 5 3 6 10 3 15 -9 13 -12 11 -12 -6z"/>
<path d="M7450 7720 c0 -6 4 -9 9 -6 5 4 12 1 14 -4 3 -6 4 -5 3 2 -3 15 -26
23 -26 8z"/>
<path d="M7374 7554 c1 -8 4 -15 7 -16 2 -2 3 -1 2 1 -2 2 2 9 7 16 7 8 5 12
-4 12 -8 0 -13 -6 -12 -13z"/>
<path d="M7288 7501 c9 -16 18 -28 20 -27 5 6 -21 56 -29 56 -5 0 0 -13 9 -29z"/>
<path d="M7330 7499 c0 -5 5 -7 10 -4 6 3 10 8 10 11 0 2 -4 4 -10 4 -5 0 -10
-5 -10 -11z"/>
<path d="M7295 7421 c-3 -5 -2 -12 3 -15 5 -3 9 1 9 9 0 17 -3 19 -12 6z"/>
<path d="M7237 7391 c-10 -14 -10 -14 4 -4 9 7 18 10 21 7 3 -3 8 -1 12 4 9
16 -24 9 -37 -7z"/>
<path d="M7210 7339 c0 -5 5 -7 10 -4 6 3 10 8 10 11 0 2 -4 4 -10 4 -5 0 -10
-5 -10 -11z"/>
<path d="M7166 7282 c-3 -5 1 -9 9 -9 8 0 12 4 9 9 -3 4 -7 8 -9 8 -2 0 -6 -4
-9 -8z"/>
<path d="M7130 7220 c0 -5 5 -10 11 -10 5 0 7 5 4 10 -3 6 -8 10 -11 10 -2 0
-4 -4 -4 -10z"/>
<path d="M7055 7179 c-4 -6 -5 -12 -2 -15 2 -3 7 2 10 11 7 17 1 20 -8 4z"/>
<path d="M7030 7121 c0 -6 4 -12 8 -15 5 -3 9 1 9 9 0 8 -4 15 -9 15 -4 0 -8
-4 -8 -9z"/>
<path d="M6917 7073 c-3 -5 -1 -17 4 -28 6 -17 7 -16 6 8 -1 28 -3 32 -10 20z"/>
<path d="M6995 7030 c10 -11 20 -20 23 -20 3 0 -3 9 -13 20 -10 11 -20 20 -23
20 -3 0 3 -9 13 -20z"/>
<path d="M6820 7004 c0 -8 5 -12 10 -9 6 4 8 11 5 16 -9 14 -15 11 -15 -7z"/>
<path d="M6931 7004 c0 -11 3 -14 6 -6 3 7 2 16 -1 19 -3 4 -6 -2 -5 -13z"/>
<path d="M6862 6940 c7 -11 19 -22 28 -25 8 -4 4 5 -9 19 -29 31 -36 33 -19 6z"/>
<path d="M6788 6823 c7 -3 16 -2 19 1 4 3 -2 6 -13 5 -11 0 -14 -3 -6 -6z"/>
<path d="M6754 6786 c1 -8 5 -18 8 -22 4 -3 5 1 4 10 -1 8 -5 18 -8 22 -4 3
-5 -1 -4 -10z"/>
<path d="M6700 6760 c-9 -6 -10 -10 -3 -10 6 0 15 5 18 10 8 12 4 12 -15 0z"/>
<path d="M6713 6725 c0 -8 4 -15 9 -15 4 0 8 4 8 9 0 6 -4 12 -8 15 -5 3 -9
-1 -9 -9z"/>
<path d="M6596 6627 c3 -10 9 -15 12 -12 3 3 0 11 -7 18 -10 9 -11 8 -5 -6z"/>
<path d="M6615 6580 c3 -5 8 -10 11 -10 2 0 4 5 4 10 0 6 -5 10 -11 10 -5 0
-7 -4 -4 -10z"/>
<path d="M6553 6545 c0 -8 4 -12 9 -9 5 3 6 10 3 15 -9 13 -12 11 -12 -6z"/>
<path d="M6505 6519 c-11 -16 -1 -19 13 -3 7 8 8 14 3 14 -5 0 -13 -5 -16 -11z"/>
<path d="M6455 6461 c-3 -5 0 -13 6 -17 8 -5 9 -3 4 6 -6 10 -3 12 13 8 12 -4
24 -3 26 1 3 4 -6 8 -19 9 -13 1 -27 -2 -30 -7z"/>
<path d="M6390 6381 c0 -6 4 -12 8 -15 5 -3 9 1 9 9 0 8 -4 15 -9 15 -4 0 -8
-4 -8 -9z"/>
<path d="M6350 6318 c0 -4 4 -8 9 -8 6 0 12 4 15 8 3 5 -1 9 -9 9 -8 0 -15 -4
-15 -9z"/>
<path d="M6296 6262 c-3 -4 4 -9 15 -9 23 -2 25 3 4 10 -8 4 -16 3 -19 -1z"/>
<path d="M6250 6179 c0 -5 5 -7 10 -4 6 3 10 8 10 11 0 2 -4 4 -10 4 -5 0 -10
-5 -10 -11z"/>
<path d="M6205 6160 c-10 -11 -16 -22 -14 -24 2 -2 12 7 22 20 22 29 17 32 -8
4z"/>
<path d="M6166 6132 c-2 -4 -1 -14 4 -22 7 -11 9 -9 7 8 -1 24 -3 26 -11 14z"/>
<path d="M6118 6083 c7 -3 16 -2 19 1 4 3 -2 6 -13 5 -11 0 -14 -3 -6 -6z"/>
<path d="M6160 6080 c-9 -6 -10 -10 -3 -10 6 0 15 5 18 10 8 12 4 12 -15 0z"/>
<path d="M6093 6035 c0 -8 4 -12 9 -9 4 3 8 9 8 15 0 5 -4 9 -8 9 -5 0 -9 -7
-9 -15z"/>
<path d="M6122 6018 c-7 -7 -12 -17 -12 -22 0 -6 5 -3 11 7 6 9 15 14 21 11 7
-4 8 -2 4 4 -9 15 -9 15 -24 0z"/>
<path d="M6060 6005 c0 -7 30 -13 34 -7 3 4 -4 9 -15 9 -10 1 -19 0 -19 -2z"/>
<path d="M6036 5927 c3 -10 9 -15 12 -12 3 3 0 11 -7 18 -10 9 -11 8 -5 -6z"/>
<path d="M5976 5902 c-2 -4 0 -14 6 -22 8 -12 9 -12 5 2 -3 9 -1 19 6 22 9 3
9 5 0 5 -6 1 -14 -3 -17 -7z"/>
<path d="M5955 5849 c-4 -6 -5 -12 -2 -15 2 -3 7 2 10 11 7 17 1 20 -8 4z"/>
<path d="M5830 5830 c0 -5 5 -10 10 -10 6 0 10 5 10 10 0 6 -4 10 -10 10 -5 0
-10 -4 -10 -10z"/>
<path d="M5910 5809 c0 -5 -5 -7 -12 -3 -7 4 -8 3 -4 -5 6 -9 11 -9 22 0 17
14 18 19 4 19 -5 0 -10 -5 -10 -11z"/>
<path d="M5915 5780 c-3 -5 -1 -10 4 -10 6 0 11 5 11 10 0 6 -2 10 -4 10 -3 0
-8 -4 -11 -10z"/>
<path d="M5856 5763 c-6 -14 -5 -15 5 -6 7 7 10 15 7 18 -3 3 -9 -2 -12 -12z"/>
<path d="M5871 5747 c-13 -21 -12 -21 5 -5 10 10 16 20 13 22 -3 3 -11 -5 -18
-17z"/>
<path d="M5828 5733 c7 -3 16 -2 19 1 4 3 -2 6 -13 5 -11 0 -14 -3 -6 -6z"/>
<path d="M5770 5619 c0 -5 5 -7 10 -4 6 3 10 8 10 11 0 2 -4 4 -10 4 -5 0 -10
-5 -10 -11z"/>
<path d="M5736 5602 c-3 -5 1 -9 9 -9 8 0 12 4 9 9 -3 4 -7 8 -9 8 -2 0 -6 -4
-9 -8z"/>
<path d="M5674 5562 c3 -5 0 -13 -6 -15 -9 -4 -10 -6 -1 -6 17 -1 25 16 12 25
-7 4 -9 3 -5 -4z"/>
<path d="M5630 5500 c0 -5 5 -10 10 -10 6 0 10 5 10 10 0 6 -4 10 -10 10 -5 0
-10 -4 -10 -10z"/>
<path d="M5600 5440 c-9 -6 -10 -10 -3 -10 6 0 15 5 18 10 8 12 4 12 -15 0z"/>
<path d="M5341 5257 c-6 -8 -8 -17 -4 -20 12 -13 22 -7 20 13 -2 24 -1 24 -16
7z"/>
<path d="M5386 5254 c-11 -7 -17 -17 -13 -20 3 -4 14 1 23 10 21 22 15 28 -10
10z"/>
<path d="M5496 5242 c-3 -5 1 -9 9 -9 8 0 12 4 9 9 -3 4 -7 8 -9 8 -2 0 -6 -4
-9 -8z"/>
<path d="M5316 5155 c-11 -8 -15 -15 -9 -15 7 0 15 5 18 10 4 6 11 8 16 5 5
-4 9 -1 9 4 0 15 -11 13 -34 -4z"/>
<path d="M5245 5130 c-3 -5 -12 -7 -20 -3 -8 3 -15 0 -15 -7 0 -6 -5 -8 -12
-4 -7 4 -8 3 -4 -4 8 -13 -11 -55 -22 -49 -4 3 -18 -9 -32 -26 -14 -17 -19
-28 -12 -23 7 4 14 1 18 -8 8 -22 16 -20 37 9 13 18 14 23 3 19 -8 -3 -17 0
-22 7 -4 7 -3 10 4 5 6 -3 14 0 19 8 4 8 13 16 18 18 6 2 9 9 9 16 -1 6 2 12
8 12 5 0 6 4 3 10 -3 6 1 7 10 3 9 -3 13 -9 8 -12 -12 -9 -15 -39 -4 -45 5 -4
13 -1 17 5 5 8 3 9 -6 4 -10 -6 -12 -4 -7 9 4 10 7 20 7 22 0 3 6 2 13 -2 8
-6 8 -3 -1 9 -8 9 -11 21 -7 27 3 5 4 10 1 10 -3 0 -7 -4 -11 -10z m-78 -116
c-9 -9 -28 6 -21 18 4 6 10 6 17 -1 6 -6 8 -13 4 -17z"/>
<path d="M5335 5131 c-3 -5 -2 -12 3 -15 5 -3 9 1 9 9 0 17 -3 19 -12 6z"/>
<path d="M5275 5080 c-3 -5 -1 -10 4 -10 6 0 11 5 11 10 0 6 -2 10 -4 10 -3 0
-8 -4 -11 -10z"/>
<path d="M5210 5040 c0 -5 5 -10 10 -10 6 0 10 5 10 10 0 6 -4 10 -10 10 -5 0
-10 -4 -10 -10z"/>
<path d="M5246 5022 c-3 -5 1 -9 9 -9 8 0 12 4 9 9 -3 4 -7 8 -9 8 -2 0 -6 -4
-9 -8z"/>
<path d="M5195 5010 c-3 -5 -3 -10 1 -10 4 0 -1 -7 -12 -16 -18 -15 -18 -15 0
-6 11 5 21 17 22 26 3 18 -2 21 -11 6z"/>
<path d="M5147 4967 c-3 -8 1 -14 8 -14 7 0 11 6 8 14 -3 7 -6 13 -8 13 -2 0
-5 -6 -8 -13z"/>
<path d="M5195 4960 c3 -5 8 -10 11 -10 2 0 4 5 4 10 0 6 -5 10 -11 10 -5 0
-7 -4 -4 -10z"/>
<path d="M5130 4930 c-9 -6 -10 -10 -3 -10 6 0 15 5 18 10 8 12 4 12 -15 0z"/>
<path d="M5126 4898 c3 -5 10 -6 15 -3 13 9 11 12 -6 12 -8 0 -12 -4 -9 -9z"/>
<path d="M5089 4883 c-13 -16 -12 -17 4 -4 9 7 17 15 17 17 0 8 -8 3 -21 -13z"/>
<path d="M4916 4804 c-8 -21 -8 -24 3 -24 12 0 22 28 12 35 -5 3 -12 -2 -15
-11z"/>
<path d="M5055 4780 c3 -5 8 -10 11 -10 2 0 4 5 4 10 0 6 -5 10 -11 10 -5 0
-7 -4 -4 -10z"/>
<path d="M4971 4754 c0 -11 3 -14 6 -6 3 7 2 16 -1 19 -3 4 -6 -2 -5 -13z"/>
<path d="M5036 4738 c3 -5 10 -6 15 -3 13 9 11 12 -6 12 -8 0 -12 -4 -9 -9z"/>
<path d="M4950 4726 c0 -2 7 -7 16 -10 8 -3 12 -2 9 4 -6 10 -25 14 -25 6z"/>
<path d="M4910 4670 c-6 -11 -8 -20 -6 -20 3 0 10 9 16 20 6 11 8 20 6 20 -3
0 -10 -9 -16 -20z"/>
<path d="M4867 4647 c-3 -8 0 -14 7 -14 7 0 13 6 13 14 0 7 -4 13 -8 13 -4 0
-9 -6 -12 -13z"/>
<path d="M4830 4620 c0 -5 5 -10 10 -10 6 0 10 5 10 10 0 6 -4 10 -10 10 -5 0
-10 -4 -10 -10z"/>
<path d="M4421 4501 c-12 -22 -1 -34 23 -25 20 8 20 18 2 33 -12 10 -17 8 -25
-8z"/>
<path d="M4734 4478 c-3 -5 -3 -12 0 -15 3 -4 6 -1 6 5 0 6 10 9 21 7 12 -3
19 -1 15 2 -11 11 -35 12 -42 1z"/>
<path d="M4380 4439 c0 -5 5 -7 10 -4 6 3 10 8 10 11 0 2 -4 4 -10 4 -5 0 -10
-5 -10 -11z"/>
<path d="M4713 4431 c0 -11 5 -18 9 -15 4 3 5 11 1 19 -7 21 -12 19 -10 -4z"/>
<path d="M4670 4420 c-12 -7 -10 -9 7 -7 12 0 19 5 17 9 -6 10 -6 10 -24 -2z"/>
<path d="M4390 4400 c0 -5 -3 -9 -7 -9 -29 5 -36 -2 -17 -16 16 -13 17 -14 1
-9 -15 5 -17 2 -13 -19 3 -18 1 -24 -8 -21 -7 3 -18 -7 -25 -22 -10 -22 -9
-30 4 -44 19 -21 19 -31 1 -24 -8 3 -17 1 -21 -5 -3 -6 1 -14 9 -17 9 -3 16
-10 16 -16 0 -5 -4 -7 -9 -3 -12 7 -33 -29 -24 -39 3 -3 -2 -6 -13 -6 -18 -1
-18 -1 -1 -11 9 -6 15 -15 11 -21 -4 -7 -9 -6 -15 3 -5 8 -7 1 -7 -19 1 -18 5
-32 10 -32 5 0 6 -5 2 -12 -4 -6 -3 -8 4 -4 6 3 14 0 19 -8 4 -8 15 -16 23
-18 8 -2 17 -6 20 -10 3 -3 12 -8 20 -10 8 -2 22 -12 31 -23 16 -19 18 -19 24
-3 4 10 10 16 14 13 4 -2 8 2 8 10 0 8 -3 13 -6 12 -3 -1 -17 6 -31 16 -16 11
-19 17 -9 17 8 0 20 -4 27 -10 9 -7 9 -7 2 2 -14 17 -12 34 2 20 7 -7 17 -12
22 -12 6 0 -1 8 -14 17 -14 10 -29 16 -35 15 -5 -2 -4 2 2 9 10 10 17 9 35 -7
l23 -19 -17 21 c-10 11 -18 26 -18 33 0 7 9 3 20 -10 10 -13 19 -18 20 -11 0
6 -5 12 -12 12 -6 0 -8 3 -5 7 4 3 -1 12 -11 20 -16 13 -15 14 6 8 15 -5 22
-2 22 8 0 8 7 18 16 21 9 3 14 13 11 20 -3 8 0 17 8 20 7 2 16 -2 19 -10 3 -8
10 -14 16 -14 5 0 2 9 -7 19 -9 11 -22 17 -28 14 -7 -2 -16 2 -21 9 -4 7 -4
10 1 6 4 -4 16 -3 26 2 12 7 19 6 22 -3 2 -6 8 -8 13 -4 11 11 -15 27 -34 20
-12 -5 -12 -3 -1 15 11 18 15 19 22 7 4 -9 13 -13 18 -10 5 4 7 11 4 16 -10
15 7 10 19 -6 9 -12 11 -9 12 18 1 33 1 34 -17 16 -11 -11 -25 -19 -31 -19 -7
0 0 12 17 27 16 15 38 27 50 26 18 -2 18 -1 1 4 -15 4 -16 7 -5 14 10 6 10 9
2 9 -7 0 -13 7 -13 16 0 8 -5 12 -10 9 -6 -4 -8 -10 -5 -14 5 -9 -43 -58 -53
-53 -4 2 -8 -1 -10 -7 -2 -6 1 -11 8 -11 6 0 8 -5 4 -11 -13 -21 -26 19 -14
41 6 12 9 26 7 33 -2 7 -10 0 -17 -15 -7 -16 -17 -28 -21 -28 -4 0 -6 -11 -5
-24 0 -13 4 -22 9 -19 4 2 7 0 7 -5 0 -4 -15 -16 -34 -25 -22 -10 -33 -22 -32
-34 0 -10 -5 -17 -12 -15 -8 1 -11 -2 -7 -8 3 -5 2 -10 -3 -10 -4 0 -16 15
-25 34 -14 30 -14 36 -2 46 8 7 12 17 9 22 -3 5 2 18 12 29 16 18 16 20 -1 39
-18 20 -18 21 3 27 12 3 19 9 16 14 -7 12 -24 11 -24 -1z m200 -33 c0 -2 -13
-16 -29 -31 -21 -20 -31 -24 -36 -15 -5 7 -4 10 2 6 6 -4 21 5 33 18 22 23 30
29 30 22z m-192 -16 c1 -1 -5 -12 -14 -26 -8 -13 -13 -28 -10 -33 3 -6 -1 -15
-9 -22 -11 -9 -12 -17 -5 -30 7 -13 7 -21 0 -25 -5 -3 -10 -11 -10 -17 0 -7 5
-6 15 2 12 10 13 8 10 -10 -3 -16 0 -20 10 -16 8 3 19 -3 25 -12 11 -16 11
-16 6 1 -3 11 2 27 14 39 15 17 17 24 8 31 -10 6 -10 8 1 5 20 -6 65 38 55 54
-5 10 -4 10 6 1 10 -9 10 -15 2 -26 -7 -8 -9 -17 -5 -21 4 -4 0 -4 -10 0 -17
6 -23 -6 -10 -20 14 -14 11 -38 -7 -56 -15 -15 -21 -16 -29 -6 -6 7 -9 16 -6
19 3 4 2 5 -2 2 -4 -3 -7 -19 -8 -35 -1 -16 -9 -38 -18 -48 -22 -24 -22 -36 1
-28 11 4 9 0 -6 -12 l-23 -18 24 -19 c14 -10 23 -25 20 -32 -5 -14 -14 -12
-16 4 -1 10 -23 33 -32 33 -3 0 -3 -6 0 -12 4 -7 -3 -2 -14 11 -12 13 -21 18
-21 12 0 -6 -13 1 -30 15 -25 23 -28 30 -18 48 7 11 13 32 14 46 2 39 3 42 13
35 19 -11 23 18 5 33 -16 12 -16 14 -2 9 25 -9 33 11 13 33 -13 14 -14 23 -6
39 7 12 17 18 27 14 11 -4 14 0 10 20 -4 23 1 26 32 18z"/>
<path d="M4334 4289 c-11 -18 11 -32 25 -16 9 12 8 16 -3 20 -9 4 -18 1 -22
-4z"/>
<path d="M4451 4216 c-12 -14 -4 -49 9 -41 12 7 19 44 10 50 -4 3 -13 -1 -19
-9z m12 -11 c-3 -9 -8 -14 -10 -11 -3 3 -2 9 2 15 9 16 15 13 8 -4z"/>
<path d="M4324 4173 c-10 -7 -12 -13 -5 -13 7 0 9 -5 4 -12 -11 -19 -12 -38
-2 -38 6 0 7 -5 4 -10 -4 -6 -10 -8 -15 -5 -5 3 -11 1 -14 -4 -7 -11 17 -32
39 -35 9 -1 20 -8 24 -15 6 -9 10 -8 16 6 5 10 7 22 6 26 -1 5 8 20 19 35 19
23 20 28 6 38 -9 6 -13 13 -10 16 3 4 -3 5 -13 5 -10 -1 -17 3 -16 9 3 15 -21
13 -43 -3z m66 -36 c0 -5 5 -5 12 -1 13 8 3 -12 -20 -38 -7 -9 -11 -21 -8 -27
4 -5 1 -13 -5 -17 -8 -5 -9 -3 -4 6 6 10 3 12 -13 8 -12 -3 -27 -1 -34 6 -7 6
-11 10 -9 9 2 -2 10 2 17 8 10 8 11 17 4 29 -5 9 -6 21 -2 25 4 3 8 11 8 16 1
5 2 11 3 14 2 8 50 -28 51 -38z"/>
<path d="M4344 4163 c3 -6 2 -14 -4 -18 -7 -4 -7 -12 0 -25 7 -13 7 -21 0 -25
-5 -3 -10 -12 -9 -18 0 -9 2 -8 6 1 2 6 8 10 13 7 4 -2 16 5 26 16 17 19 17
20 -10 47 -16 15 -26 22 -22 15z m23 -58 c-9 -8 -15 -12 -12 -9 2 4 0 14 -5
24 -13 24 0 34 19 15 14 -13 14 -17 -2 -30z"/>
<path d="M4356 4127 c3 -10 9 -15 12 -12 3 3 0 11 -7 18 -10 9 -11 8 -5 -6z"/>
<path d="M4685 4380 c-3 -6 1 -7 9 -4 18 7 21 14 7 14 -6 0 -13 -4 -16 -10z"/>
<path d="M4628 4373 c7 -3 16 -2 19 1 4 3 -2 6 -13 5 -11 0 -14 -3 -6 -6z"/>
<path d="M4613 4315 c0 -8 4 -12 9 -9 4 3 8 9 8 15 0 5 -4 9 -8 9 -5 0 -9 -7
-9 -15z"/>
<path d="M4590 4201 c0 -6 4 -13 10 -16 6 -3 7 1 4 9 -7 18 -14 21 -14 7z"/>
<path d="M4500 4162 c0 -4 9 -8 19 -8 11 0 17 4 15 8 -3 4 -12 8 -20 8 -8 0
-14 -4 -14 -8z"/>
<path d="M4477 4135 c-4 -8 -3 -16 1 -19 4 -3 9 4 9 15 2 23 -3 25 -10 4z"/>
<path d="M4474 4066 c1 -8 5 -18 8 -22 4 -3 5 1 4 10 -1 8 -5 18 -8 22 -4 3
-5 -1 -4 -10z"/>
<path d="M4490 4000 c0 -5 5 -10 11 -10 5 0 7 5 4 10 -3 6 -8 10 -11 10 -2 0
-4 -4 -4 -10z"/>
<path d="M4855 3701 c-3 -5 -2 -12 3 -15 5 -3 9 1 9 9 0 17 -3 19 -12 6z"/>
<path d="M4821 3674 c0 -11 3 -14 6 -6 3 7 2 16 -1 19 -3 4 -6 -2 -5 -13z"/>
<path d="M4885 3660 c-3 -5 -2 -18 4 -27 7 -14 9 -12 8 10 -2 30 -3 31 -12 17z"/>
<path d="M4957 3583 c-10 -9 -9 -23 1 -23 5 0 9 7 9 15 0 17 -1 18 -10 8z"/>
<path d="M4989 3578 c7 -9 9 -23 5 -30 -6 -10 -4 -11 7 0 11 10 10 15 -6 30
-17 15 -18 15 -6 0z"/>
<path d="M4881 3547 c-8 -10 -7 -14 2 -14 8 0 14 6 14 14 0 7 -1 13 -2 13 -2
0 -8 -6 -14 -13z"/>
<path d="M4985 3520 c-3 -6 1 -7 9 -4 18 7 21 14 7 14 -6 0 -13 -4 -16 -10z"/>
<path d="M4948 3463 c7 -3 16 -2 19 1 4 3 -2 6 -13 5 -11 0 -14 -3 -6 -6z"/>
<path d="M4920 3400 c8 -5 20 -10 25 -10 6 0 3 5 -5 10 -8 5 -19 10 -25 10 -5
0 -3 -5 5 -10z"/>
<path d="M4780 3329 c-19 -17 -28 -27 -20 -22 15 8 21 10 42 12 6 0 8 4 5 8
-4 3 -2 12 4 20 19 22 5 15 -31 -18z"/>
<path d="M4855 3280 c2 -27 10 -33 12 -10 1 11 -2 22 -6 24 -4 3 -7 -4 -6 -14z"/>
<path d="M4799 3233 c-13 -16 -12 -17 4 -4 16 13 21 21 13 21 -2 0 -10 -8 -17
-17z"/>
<path d="M4727 3164 c7 -3 9 -13 6 -22 -4 -14 -3 -14 5 -2 12 16 7 30 -11 29
-9 0 -9 -2 0 -5z"/>
<path d="M4678 3116 c-13 -18 -14 -23 -2 -23 8 0 12 3 9 5 -3 3 0 11 7 19 6 7
9 15 7 17 -2 2 -12 -6 -21 -18z"/>
<path d="M4630 3089 c0 -5 5 -7 10 -4 6 3 10 8 10 11 0 2 -4 4 -10 4 -5 0 -10
-5 -10 -11z"/>
<path d="M4465 3040 c-3 -5 1 -10 10 -10 9 0 13 5 10 10 -3 6 -8 10 -10 10 -2
0 -7 -4 -10 -10z"/>
<path d="M4615 3031 c-3 -5 -2 -12 3 -15 5 -3 9 1 9 9 0 17 -3 19 -12 6z"/>
<path d="M4565 2999 c-3 -4 2 -6 10 -5 21 3 28 13 10 13 -9 0 -18 -4 -20 -8z"/>
<path d="M4473 2964 c0 -23 1 -24 9 -10 7 12 7 21 0 28 -6 6 -9 0 -9 -18z"/>
<path d="M2106 2922 c-3 -5 1 -9 9 -9 8 0 15 4 15 9 0 4 -4 8 -9 8 -6 0 -12
-4 -15 -8z"/>
<path d="M4446 2919 c4 -8 30 -6 38 2 3 3 -5 5 -19 5 -13 0 -22 -3 -19 -7z"/>
<path d="M4416 2902 c-2 -4 0 -14 6 -22 8 -12 9 -12 5 2 -3 9 -1 19 6 22 9 3
9 5 0 5 -6 1 -14 -3 -17 -7z"/>
<path d="M4390 2880 c0 -5 5 -10 11 -10 5 0 7 5 4 10 -3 6 -8 10 -11 10 -2 0
-4 -4 -4 -10z"/>
<path d="M4430 2856 c0 -2 8 -10 18 -17 15 -13 16 -12 3 4 -13 16 -21 21 -21
13z"/>
<path d="M4300 2800 c-9 -6 -10 -10 -3 -10 6 0 15 5 18 10 8 12 4 12 -15 0z"/>
<path d="M4426 2802 c-3 -5 1 -9 9 -9 8 0 12 4 9 9 -3 4 -7 8 -9 8 -2 0 -6 -4
-9 -8z"/>
<path d="M4333 2785 c0 -8 4 -12 9 -9 5 3 6 10 3 15 -9 13 -12 11 -12 -6z"/>
<path d="M4186 2741 c-7 -11 3 -41 13 -41 4 0 8 7 8 15 0 8 -5 11 -10 8 -6 -4
-8 0 -4 10 7 18 2 23 -7 8z"/>
<path d="M4290 2746 c0 -2 7 -7 16 -10 8 -3 12 -2 9 4 -6 10 -25 14 -25 6z"/>
<path d="M4060 2695 c-9 -11 -16 -12 -25 -5 -9 8 -14 5 -18 -11 -4 -13 -11
-20 -20 -16 -7 3 -19 -4 -25 -14 -10 -15 -9 -19 1 -19 7 0 18 5 25 12 9 9 12
9 12 0 0 -6 10 -16 23 -22 21 -11 21 -10 3 4 -11 9 -17 19 -13 22 4 4 14 1 24
-7 9 -8 14 -9 10 -3 -4 7 1 18 10 25 15 12 16 12 10 -4 -4 -11 -3 -16 4 -12 5
4 7 16 3 28 -6 20 -5 20 10 8 14 -12 19 -12 29 -1 10 10 8 12 -6 7 -11 -4 -20
-1 -23 8 -8 19 -18 19 -34 0z m8 -17 c-16 -24 -30 -27 -36 -9 -2 6 3 9 11 5 8
-3 17 2 20 10 4 9 9 16 13 16 3 0 0 -10 -8 -22z"/>
<path d="M4095 2640 c-3 -6 1 -7 9 -4 18 7 21 14 7 14 -6 0 -13 -4 -16 -10z"/>
<path d="M3915 2630 c3 -5 8 -10 11 -10 2 0 4 5 4 10 0 6 -5 10 -11 10 -5 0
-7 -4 -4 -10z"/>
<path d="M2216 2578 c3 -5 10 -6 15 -3 13 9 11 12 -6 12 -8 0 -12 -4 -9 -9z"/>
<path d="M4055 2580 c3 -5 8 -10 11 -10 2 0 4 5 4 10 0 6 -5 10 -11 10 -5 0
-7 -4 -4 -10z"/>
<path d="M3966 2563 c-6 -14 -5 -15 5 -6 7 7 10 15 7 18 -3 3 -9 -2 -12 -12z"/>
<path d="M3905 2550 c-3 -6 1 -7 9 -4 18 7 21 14 7 14 -6 0 -13 -4 -16 -10z"/>
<path d="M2275 2520 c-4 -6 1 -7 11 -3 11 4 15 3 10 -5 -3 -6 3 -13 14 -17 22
-7 27 -31 8 -38 -8 -4 -9 -6 -2 -6 6 -1 18 6 25 15 15 18 22 47 9 39 -5 -3
-14 3 -20 12 -11 17 -11 17 -6 1 7 -22 -10 -24 -18 -3 -6 17 -22 20 -31 5z"/>
<path d="M3886 2522 c-3 -5 1 -9 9 -9 8 0 15 4 15 9 0 4 -4 8 -9 8 -6 0 -12
-4 -15 -8z"/>
<path d="M3871 2493 c7 -12 15 -20 18 -17 3 2 -3 12 -13 22 -17 16 -18 16 -5
-5z"/>
<path d="M2273 2486 c0 -7 6 -13 14 -13 7 0 13 4 13 8 0 4 -6 9 -13 12 -8 3
-14 0 -14 -7z"/>
<path d="M3786 2438 c3 -5 10 -6 15 -3 13 9 11 12 -6 12 -8 0 -12 -4 -9 -9z"/>
<path d="M3700 2420 c-9 -6 -10 -10 -3 -10 6 0 15 5 18 10 8 12 4 12 -15 0z"/>
<path d="M2314 2396 c1 -8 5 -18 8 -22 4 -3 5 1 4 10 -1 8 -5 18 -8 22 -4 3
-5 -1 -4 -10z"/>
<path d="M3550 2400 c0 -5 5 -10 11 -10 5 0 7 5 4 10 -3 6 -8 10 -11 10 -2 0
-4 -4 -4 -10z"/>
<path d="M3655 2401 c-3 -5 -2 -12 3 -15 5 -3 9 1 9 9 0 17 -3 19 -12 6z"/>
<path d="M3579 2388 c-5 -18 -6 -38 -1 -34 7 8 12 36 6 36 -2 0 -4 -1 -5 -2z"/>
<path d="M3627 2379 c7 -7 15 -10 18 -7 3 3 -2 9 -12 12 -14 6 -15 5 -6 -5z"/>
<path d="M3306 2359 c-14 -11 -31 -17 -38 -14 -7 4 -5 0 5 -8 14 -11 15 -16 5
-20 -7 -3 -2 -4 12 -2 14 2 29 4 34 4 6 1 1 8 -10 16 -13 11 -14 13 -3 9 11
-3 18 2 22 15 6 26 6 26 -27 0z"/>
<path d="M3519 2368 c-6 -21 -5 -37 2 -32 5 3 6 10 3 16 -5 8 -1 9 10 5 10 -4
15 -3 11 3 -5 9 -24 14 -26 8z"/>
<path d="M2346 2338 c3 -5 10 -6 15 -3 13 9 11 12 -6 12 -8 0 -12 -4 -9 -9z"/>
<path d="M2536 2308 c-19 -26 -20 -38 -5 -38 5 0 8 4 5 8 -3 5 8 9 24 9 16 0
27 -4 24 -9 -3 -4 0 -8 5 -8 18 0 12 19 -9 30 -11 6 -18 15 -15 21 13 20 -15
8 -29 -13z m29 -8 c3 -5 2 -10 -4 -10 -5 0 -13 5 -16 10 -3 6 -2 10 4 10 5 0
13 -4 16 -10z"/>
<path d="M3430 2319 c0 -5 5 -7 10 -4 6 3 10 8 10 11 0 2 -4 4 -10 4 -5 0 -10
-5 -10 -11z"/>
<path d="M3193 2295 c0 -14 2 -23 5 -21 3 3 12 0 20 -7 11 -8 10 -3 -3 18 -11
17 -20 31 -21 33 -1 2 -1 -9 -1 -23z"/>
<path d="M2393 2295 c0 -8 4 -12 9 -9 5 3 6 10 3 15 -9 13 -12 11 -12 -6z"/>
<path d="M2756 2301 c-8 -12 23 -43 35 -35 6 3 17 0 26 -8 9 -7 14 -8 10 -2
-4 7 0 14 8 18 8 3 17 1 20 -4 4 -6 1 -10 -6 -10 -7 0 -9 -3 -6 -6 4 -4 14 -1
23 6 13 12 17 11 26 -1 7 -11 8 -9 3 6 -4 11 -8 26 -8 33 0 6 -5 12 -10 12 -5
0 -6 -7 -3 -16 5 -13 3 -14 -6 -7 -18 13 -37 11 -47 -6 -7 -11 -10 -9 -16 8
-6 21 -7 22 -22 4 -8 -10 -12 -13 -9 -6 8 14 -10 27 -18 14z"/>
<path d="M3455 2300 c3 -5 8 -10 11 -10 2 0 4 5 4 10 0 6 -5 10 -11 10 -5 0
-7 -4 -4 -10z"/>
<path d="M3250 2290 c-11 -7 -11 -10 -2 -10 8 0 10 -5 6 -12 -4 -7 -3 -9 1 -5
7 6 17 37 12 37 -1 0 -9 -5 -17 -10z"/>
<path d="M3297 2289 c7 -7 15 -10 18 -7 3 3 -2 9 -12 12 -14 6 -15 5 -6 -5z"/>
<path d="M2550 2260 c0 -5 5 -10 10 -10 6 0 10 5 10 10 0 6 -4 10 -10 10 -5 0
-10 -4 -10 -10z"/>
<path d="M2455 2251 c-3 -5 -2 -12 3 -15 5 -3 9 1 9 9 0 17 -3 19 -12 6z"/>
<path d="M2670 2249 c0 -5 5 -7 10 -4 6 3 10 8 10 11 0 2 -4 4 -10 4 -5 0 -10
-5 -10 -11z"/>
<path d="M2911 2244 c0 -11 3 -14 6 -6 3 7 2 16 -1 19 -3 4 -6 -2 -5 -13z"/>
<path d="M2575 2240 c-2 -3 5 -7 16 -7 10 -1 19 2 19 6 0 9 -29 10 -35 1z"/>
<path d="M2784 2242 c4 -3 14 -7 22 -8 9 -1 13 0 10 4 -4 3 -14 7 -22 8 -9 1
-13 0 -10 -4z"/>
<path d="M3019 2248 c-5 -18 -6 -38 -1 -34 7 8 12 36 6 36 -2 0 -4 -1 -5 -2z"/>
<path d="M3075 2239 c-3 -4 2 -6 10 -5 21 3 28 13 10 13 -9 0 -18 -4 -20 -8z"/>
<path d="M2525 2220 c-3 -6 1 -7 9 -4 18 7 21 14 7 14 -6 0 -13 -4 -16 -10z"/>
</g>
</svg>
